<svg width="24" height="25" viewBox="0 0 24 25" fill="none" xmlns="http://www.w3.org/2000/svg">
<g clip-path="url(#clip0)">
<path d="M6.56983 11.039H0V13.1843H6.56983V11.039ZM8.98324 7.55301L6.56983 5.27368L5.09497 6.74854L7.3743 9.02787L8.98324 7.55301ZM13.1397 0.178711H10.8603V6.74854H13.0056V0.178711H13.1397ZM18.905 6.74854L17.4302 5.27368L15.1508 7.55301L16.6257 9.02787L18.905 6.74854ZM17.4302 11.039V13.1843H24V11.039H17.4302ZM12.067 8.8938C10.1899 8.8938 8.71508 10.3687 8.71508 12.2458C8.71508 14.1228 10.1899 15.4636 11.933 15.4636C13.676 15.4636 15.1508 13.9888 15.1508 12.2458C15.1508 10.5027 13.8101 8.8938 12.067 8.8938ZM15.1508 16.8044L17.4302 19.0837L18.905 17.6089L16.6257 15.3295L15.1508 16.8044ZM5.09497 17.6089L6.56983 19.0837L8.84916 16.8044L7.3743 15.3295L5.09497 17.6089ZM10.8603 24.1787H13.0056V17.6089H10.8603V24.1787Z" fill="white"/>
</g>
<defs>
<clipPath id="clip0">
<rect width="24" height="24" fill="white" transform="translate(0 0.178711)"/>
</clipPath>
</defs>
</svg>
