<svg width="24" height="17" viewBox="0 0 24 17" fill="none" xmlns="http://www.w3.org/2000/svg">
  <path d="M12.067 0C6.56983 0 1.87709 3.35196 0 8.17877C1.87709 13.0056 6.56983 16.3575 12.067 16.3575C17.5642 16.3575 22.1229 13.0056 24.1341 8.17877C22.1229 3.35196 17.4302 0 12.067 0ZM12.067 13.676C9.11732 13.676 6.56983 11.2626 6.56983 8.17877C6.56983 5.09497 8.98324 2.68156 12.067 2.68156C15.1508 2.68156 17.4302 5.22905 17.4302 8.17877C17.4302 11.1285 15.0168 13.676 12.067 13.676ZM12.067 4.96089C10.1899 4.96089 8.84916 6.43575 8.84916 8.17877C8.84916 9.92179 10.1899 11.5307 12.067 11.5307C13.9441 11.5307 15.2849 10.0559 15.2849 8.31285C15.2849 6.56983 13.8101 4.96089 12.067 4.96089Z" fill="white"/>
</svg>
