<svg width="22" height="23" viewBox="0 0 22 23" fill="none" xmlns="http://www.w3.org/2000/svg">
<g clip-path="url(#clip0)">
<path d="M20.0544 0.328371L0.14966 20.2331C0.29932 20.6821 0.44898 20.9814 0.748299 21.2808C1.04762 21.5801 1.4966 21.7297 1.79592 21.8794L21.8503 1.97463C21.551 1.22633 20.9524 0.478031 20.0544 0.328371ZM10.7755 0.178711L0 10.9542V14.3964L14.2177 0.178711H10.7755ZM2.39456 0.178711C1.04762 0.178711 0 1.22633 0 2.57327V4.96783L4.93878 0.178711H2.39456ZM19.4558 22.1787C20.0544 22.1787 20.8027 21.8794 21.102 21.4304C21.551 20.9814 21.8503 20.3828 21.8503 19.7842V17.3896L16.9116 22.3284H19.4558V22.1787ZM7.63265 22.1787H11.0748L21.8503 11.4032V7.81136L7.63265 22.1787Z" fill="white"/>
</g>
<defs>
<clipPath id="clip0">
<rect width="22" height="22" fill="white" transform="translate(0 0.178711)"/>
</clipPath>
</defs>
</svg>
