<svg width="21" height="21" viewBox="0 0 21 21" fill="none" xmlns="http://www.w3.org/2000/svg">
  <path fill-rule="evenodd" clip-rule="evenodd" d="M10.5 4.5C8.29 4.5 6.5 6.29 6.5 8.5H8.5C8.5 7.4 9.4 6.5 10.5 6.5C11.6 6.5 12.5 7.4 12.5 8.5C12.5 10.5 9.5 10.25 9.5 13.5H11.5C11.5 11.25 14.5 11 14.5 8.5C14.5 6.29 12.71 4.5 10.5 4.5ZM10.5 18.5C6.09 18.5 2.5 14.91 2.5 10.5C2.5 6.09 6.09 2.5 10.5 2.5C14.91 2.5 18.5 6.09 18.5 10.5C18.5 14.91 14.91 18.5 10.5 18.5ZM10.5 0.5C4.98 0.5 0.5 4.98 0.5 10.5C0.5 16.02 4.98 20.5 10.5 20.5C16.02 20.5 20.5 16.02 20.5 10.5C20.5 4.98 16.02 0.5 10.5 0.5ZM9.5 16.5H11.5V14.5H9.5V16.5Z" fill="#7C818A"/>
</svg>
