<svg width="17" height="17" viewBox="0 0 17 17" fill="none" xmlns="http://www.w3.org/2000/svg">
  <path fill-rule="evenodd" clip-rule="evenodd" d="M6.40413 10.4207C4.18586 10.4207 2.39348 8.62827 2.39348 6.40999C2.39348 4.19031 4.18586 2.39934 6.40413 2.39934C8.62382 2.39934 10.4148 4.19031 10.4148 6.40999C10.4148 8.62827 8.62382 10.4207 6.40413 10.4207ZM11.7517 10.4207H11.048L10.7984 10.1795C11.6713 9.16415 12.1973 7.84418 12.1973 6.40999C12.1973 3.21021 9.60533 0.616821 6.40413 0.616821C3.20435 0.616821 0.610962 3.21021 0.610962 6.40999C0.610962 9.60978 3.20435 12.2032 6.40413 12.2032C7.83974 12.2032 9.15829 11.6772 10.1751 10.8042L10.4148 11.0538V11.7575L14.8711 16.2054L16.1995 14.8769L11.7517 10.4207Z" fill="white"/>
</svg>