<svg width="35" height="35" viewBox="0 0 35 35" fill="none" xmlns="http://www.w3.org/2000/svg">
<g clip-path="url(#clip0)">
<path d="M17.3184 34.1631C26.6692 34.1631 34.2496 26.5828 34.2496 17.232C34.2496 7.88113 26.6692 0.300781 17.3184 0.300781C7.96755 0.300781 0.387207 7.88113 0.387207 17.232C0.387207 26.5828 7.96755 34.1631 17.3184 34.1631Z" fill="black"/>
<path d="M17.3184 28.9325C12.0877 28.9325 7.68282 24.6653 7.54517 19.4345L10.5735 19.2969C10.7112 22.8758 13.7395 25.9042 17.3184 25.9042C20.8974 25.9042 23.9257 22.8758 24.0634 19.2969L27.0917 19.4345C26.9541 24.6653 22.5492 28.9325 17.3184 28.9325Z" fill="white"/>
</g>
<defs>
<clipPath id="clip0">
<rect width="34" height="34" fill="white" transform="translate(0.387207 0.300781)"/>
</clipPath>
</defs>
</svg>