<svg width="26" height="28" viewBox="0 0 26 28" fill="none" xmlns="http://www.w3.org/2000/svg">
<g clip-path="url(#clip0)">
<path d="M3.90402 27.6991C6.02293 27.6991 7.74065 25.9814 7.74065 23.8625C7.74065 21.7436 6.02293 20.0259 3.90402 20.0259C1.7851 20.0259 0.0673828 21.7436 0.0673828 23.8625C0.0673828 25.9814 1.7851 27.6991 3.90402 27.6991Z" fill="white"/>
<path d="M16.6516 17.1793C19.2506 17.1793 21.1071 15.4466 21.8497 13.8377L25.1912 15.9417C23.4586 18.912 20.4883 21.016 16.4041 21.016C11.0823 21.016 6.13184 16.808 6.13184 10.6199C6.13184 4.4318 10.9586 0.223877 16.4041 0.223877C20.4883 0.223877 23.4586 2.32784 25.0675 5.29813L21.7259 7.4021C21.1071 5.66942 19.1269 4.06051 16.5279 4.06051C12.4437 4.06051 10.216 7.03081 10.216 10.6199C10.216 14.209 12.5675 17.1793 16.6516 17.1793Z" fill="white"/>
</g>
<defs>
<clipPath id="clip0">
<rect width="25" height="27.599" fill="white" transform="translate(0.0673828 0.100098)"/>
</clipPath>
</defs>
</svg>
