<svg width="242" height="33" viewBox="0 0 242 33" fill="none" xmlns="http://www.w3.org/2000/svg">
<path d="M89.5176 26.7496H96.6016C102.622 26.7496 105.674 22.8016 105.674 16.8096C105.674 10.8176 102.818 6.72963 96.7976 6.72963H89.5176V26.7496ZM92.0376 24.5376V8.91363H96.7136C101.418 8.91363 103.098 12.1056 103.098 16.8096C103.098 21.5136 101.222 24.5376 96.5176 24.5376H92.0376ZM114.51 27.1416C117.786 27.1416 120.054 25.3776 120.726 22.2696H118.514C118.01 24.2296 116.61 25.2376 114.51 25.2376C111.598 25.2376 110.002 22.9976 109.834 20.0576H121.034C121.034 15.2696 118.71 11.9096 114.37 11.9096C110.254 11.9096 107.51 15.3256 107.51 19.5256C107.51 23.7256 110.086 27.1416 114.51 27.1416ZM114.37 13.7016C116.974 13.7016 118.458 15.4656 118.598 18.3496H109.89C110.226 15.7176 111.682 13.7016 114.37 13.7016ZM126.562 26.7496H129.082L134.29 12.2736H131.938L128.886 21.4576C128.466 22.7176 127.934 24.5096 127.934 24.5096H127.878C127.878 24.5096 127.346 22.7456 126.926 21.4576L123.93 12.2736H121.494L126.562 26.7496ZM141.799 27.1416C145.075 27.1416 147.343 25.3776 148.015 22.2696H145.803C145.299 24.2296 143.899 25.2376 141.799 25.2376C138.887 25.2376 137.291 22.9976 137.123 20.0576H148.323C148.323 15.2696 145.999 11.9096 141.659 11.9096C137.543 11.9096 134.799 15.3256 134.799 19.5256C134.799 23.7256 137.375 27.1416 141.799 27.1416ZM141.659 13.7016C144.263 13.7016 145.747 15.4656 145.887 18.3496H137.179C137.515 15.7176 138.971 13.7016 141.659 13.7016ZM150.625 26.7496H152.893V6.72963H150.625V26.7496ZM162.252 27.1416C166.592 27.1416 169.224 23.7256 169.224 19.5256C169.224 15.3256 166.592 11.9096 162.252 11.9096C157.94 11.9096 155.252 15.3256 155.252 19.5256C155.252 23.7256 157.94 27.1416 162.252 27.1416ZM162.252 25.2376C159.172 25.2376 157.576 22.7176 157.576 19.5256C157.576 16.3336 159.172 13.7856 162.252 13.7856C165.332 13.7856 166.9 16.3336 166.9 19.5256C166.9 22.7176 165.332 25.2376 162.252 25.2376ZM171.486 31.3976H173.754V25.0416H173.81C175.014 26.5816 176.414 27.1696 178.374 27.1696C182.294 27.1696 184.674 24.2016 184.674 19.5536C184.674 14.7376 182.126 11.9376 178.458 11.9376C176.358 11.9376 174.902 12.8336 173.81 14.3176H173.754V12.2736H171.486V31.3976ZM178.206 25.2656C174.874 25.2656 173.614 22.7176 173.614 19.5816C173.614 16.4456 175.07 13.8696 178.234 13.8696C180.978 13.8696 182.35 16.3336 182.35 19.5816C182.35 22.8576 180.978 25.2656 178.206 25.2656ZM193.124 27.1416C196.4 27.1416 198.668 25.3776 199.34 22.2696H197.128C196.624 24.2296 195.224 25.2376 193.124 25.2376C190.212 25.2376 188.616 22.9976 188.448 20.0576H199.648C199.648 15.2696 197.324 11.9096 192.984 11.9096C188.868 11.9096 186.124 15.3256 186.124 19.5256C186.124 23.7256 188.7 27.1416 193.124 27.1416ZM192.984 13.7016C195.588 13.7016 197.072 15.4656 197.212 18.3496H188.504C188.84 15.7176 190.296 13.7016 192.984 13.7016ZM204.133 12.2736H201.865V26.7496H204.133V18.7136C204.133 15.9976 206.093 14.3176 208.333 14.3176C208.781 14.3176 209.005 14.3456 209.341 14.4576H209.425V12.2736C209.145 12.1616 208.921 12.1056 208.501 12.1056C206.569 12.1056 205.057 13.2816 204.189 14.6816H204.133V12.2736ZM216.951 27.1696C220.283 27.1696 222.663 25.6856 222.663 22.7736C222.663 19.4416 220.227 18.7976 217.315 18.2096C214.823 17.7056 213.423 17.3976 213.423 15.8296C213.423 14.6816 214.263 13.7576 216.335 13.7576C218.491 13.7576 219.527 14.5976 219.751 16.5016H222.075C221.739 13.6736 219.975 11.9656 216.391 11.9656C213.031 11.9656 211.183 13.5336 211.183 15.9416C211.183 19.1056 213.731 19.6936 216.587 20.2816C219.247 20.8416 220.367 21.2616 220.367 22.8856C220.367 24.2296 219.387 25.2656 217.007 25.2656C214.851 25.2656 213.171 24.5656 212.863 22.0456H210.539C210.763 25.2936 212.975 27.1696 216.951 27.1696Z" fill="#505050"/>
<mask id="mask0" mask-type="alpha" maskUnits="userSpaceOnUse" x="0" y="26" width="700" height="600">
<path fill-rule="evenodd" clip-rule="evenodd" d="M0.641602 26.3235H6.22741V31.9088H0.641602V26.3235Z" fill="#000000"/>
</mask>
<g mask="url(#mask0)">
<path fill-rule="evenodd" clip-rule="evenodd" d="M3.43447 26.3235C4.9761 26.3235 6.22745 27.5732 6.22745 29.1165C6.22745 30.6581 4.9761 31.9095 3.43447 31.9095C1.89283 31.9095 0.641479 30.6581 0.641479 29.1165C0.641479 27.5732 1.89283 26.3235 3.43447 26.3235Z" fill="#000000"/>
</g>
<path fill-rule="evenodd" clip-rule="evenodd" d="M12.6708 24.256C14.5241 24.256 15.9476 23.021 16.4577 21.7861L18.8734 23.3425C17.6385 25.5188 15.4376 27.049 12.5101 27.049C8.61663 27.049 5.07251 23.9608 5.07251 19.449C5.07251 14.9651 8.61663 11.8507 12.5101 11.8507C15.4638 11.8507 17.6385 13.4071 18.8488 15.5834L16.4314 17.1398C15.9476 15.9049 14.5503 14.6699 12.6708 14.6699C9.7171 14.6699 8.10658 16.8446 8.10658 19.4769C8.10658 22.1075 9.7171 24.256 12.6708 24.256Z" fill="#000000"/>
<path fill-rule="evenodd" clip-rule="evenodd" d="M22.58 17.5158H30.0175C29.8568 15.9053 28.2988 14.6704 26.4455 14.6704C24.2708 14.6704 23.0359 15.9053 22.58 17.5158ZM22.4176 20.2284C22.4176 22.4031 23.9773 24.2564 26.6079 24.2564C28.4611 24.2564 29.7486 23.3166 30.2045 22.0801L32.8105 23.3166C31.5756 25.4913 29.3993 27.0477 26.4455 27.0477C22.58 27.0477 19.3048 23.9612 19.3048 19.4494C19.3048 14.9656 22.393 11.8495 26.4455 11.8495C30.1799 11.8495 33.2681 14.8032 33.2681 19.2887L32.945 20.2284H22.4176Z" fill="#000000"/>
<path fill-rule="evenodd" clip-rule="evenodd" d="M34.9858 12.1726H37.7772L38.1003 13.4075L38.261 13.5682L38.4234 13.4075C39.04 12.4678 40.5981 11.8495 41.833 11.8495C45.5657 11.8495 47.7142 14.321 47.7142 17.7307V26.7263H44.626V17.7585C44.544 15.7708 43.578 14.6704 41.5378 14.6704C39.7124 14.6704 38.1806 16.1464 38.1265 17.9455V26.7525H35.0383V12.1726H34.9858Z" fill="#000000"/>
<path fill-rule="evenodd" clip-rule="evenodd" d="M48.465 12.1726H51.2859V9.08441L53.7279 5.99622H54.3183V12.1988H57.4606V14.9656H54.3183V22.4032C54.3183 23.3429 54.9645 23.9612 55.9026 23.9612L57.7558 23.6381V26.4311L56.0371 26.7526C52.9489 26.7526 51.258 25.1962 51.258 22.4032V14.9656H48.4371V12.1726H48.465Z" fill="#000000"/>
<path fill-rule="evenodd" clip-rule="evenodd" d="M59.6361 12.1726H62.4275L62.7505 13.729L62.9113 13.8914L63.0736 13.729C64.0134 12.4957 65.2483 11.8774 66.4833 11.8774C67.1016 11.8774 67.423 11.8774 68.0413 12.1989V14.9656H66.1881C64.3627 14.9656 62.8309 16.4417 62.7768 18.2408V26.7264H59.6886V12.1726H59.6361Z" fill="#000000"/>
<path fill-rule="evenodd" clip-rule="evenodd" d="M75.2901 14.6699C72.3364 14.6699 70.7521 16.8446 70.7521 19.4769C70.7521 22.1075 72.3364 24.2822 75.2901 24.2822C77.9207 24.2822 79.7739 22.1075 79.7739 19.4769C79.7739 16.8184 77.9207 14.6699 75.2901 14.6699ZM82.5669 26.7537H79.7739L79.4525 25.5188L79.2901 25.3564L79.131 25.5188C78.1913 26.4569 76.6595 27.0752 75.1031 27.0752C71.0752 27.0752 67.6655 23.987 67.6655 19.4769C67.6655 14.9914 71.0752 11.877 75.1031 11.877C76.6595 11.877 78.1913 12.4952 79.131 13.435L79.2901 13.5957L79.4525 13.435L79.7739 12.2H82.5669V26.7537Z" fill="#000000"/>
</svg>
