<svg width="745" height="741" viewBox="0 0 745 741" fill="none" xmlns="http://www.w3.org/2000/svg">
<g filter="url(#filter0_d)">
<path d="M79.1771 493.013L86.6532 505.891C94.4935 504.962 100.693 506.723 106.183 516.206C113.542 528.85 107.213 541.012 95.1542 548.021C83.0958 555.03 70.1095 553.496 63.1007 541.438C56.7929 530.55 60.1929 523.416 63.5901 519.207L56.1141 506.329C47.2141 514.16 42.4027 528.898 52.9158 547.045C64.9476 567.766 86.5908 570.829 103.449 561.017C120.307 551.204 128.75 532.024 116.485 510.951C105.738 492.57 91.4656 489.983 79.1771 493.013Z" stroke="white" stroke-width="0.7642" stroke-miterlimit="10"/>
<path d="M61.9836 486.795C81.7626 481.549 93.8311 464.009 87.7685 441.421C81.3562 417.429 61.239 409.219 42.3962 414.232C23.9045 419.129 10.8999 436.784 17.0792 459.724C23.1419 482.312 43.2578 491.808 61.9836 486.795ZM28.4311 457.277C24.4671 442.531 33.954 432.711 46.5939 429.33C58.8827 426.066 72.3354 429.238 76.1827 443.75C80.0301 458.146 71.0108 468.317 57.6686 471.931C45.3797 475.312 32.1618 471.322 28.4311 457.277Z" stroke="white" stroke-width="0.7642" stroke-miterlimit="10"/>
<path d="M5.81317 372.66L5.20792 393.721L75.1755 395.894L75.5393 382.556L49.0968 381.711C37.1625 381.349 23.2385 381.57 15.0478 381.796L15.048 381.679C27.6879 378.298 54.2564 369.899 76.0254 363.718L76.3888 350.848C51.4756 341.347 28.6681 332.315 16.6202 328.442L16.6203 328.325C24.2251 328.918 36.7444 329.281 49.1467 329.644L77.1104 330.49L77.592 316.332L7.6243 314.276L7.01883 335.571C27.838 343.781 49.0078 352.46 59.1841 355.863L59.184 355.98C50.4067 357.843 28.0513 365.427 5.81317 372.66Z" stroke="white" stroke-width="0.7642" stroke-miterlimit="10"/>
<path d="M84.638 289.545L59.7243 280.628C48.4955 276.639 35.1608 272.414 27.3236 270.184L27.3237 270.067C40.4277 270.781 68.392 270.925 91.0904 271.766L95.4313 259.602C74.6204 242.733 55.6804 227.153 45.3909 219.771L45.3911 219.654C52.4086 222.586 64.2222 226.81 75.9187 231.033L102.236 240.419L107.046 227.085L41.0773 203.503L33.8036 223.622C51.1069 237.796 68.6434 252.79 77.1788 259.116L77.1787 259.233C68.4041 258.289 44.7686 258.617 21.2504 258.594L14.0939 278.479L80.1798 302.06L84.638 289.545Z" stroke="white" stroke-width="0.7642" stroke-miterlimit="10"/>
<path d="M148.054 168.621L139.287 160.422L113.745 196.669L98.5441 185.89L121.509 153.267L111.804 146.355L88.8391 179.094L75.9771 170.073L100.231 135.579L90.5255 128.783L57.8362 175.203L115.014 215.508L148.054 168.621Z" stroke="white" stroke-width="0.7642" stroke-miterlimit="10"/>
<path d="M166.441 151.088L147.974 130.009L159.919 119.607C168.116 112.477 172.445 112.833 177.704 118.922L179.224 120.678C183.782 125.831 186.821 129.227 189.745 130.868L201.104 120.933C198.297 119.059 194.791 114.843 191.402 111.096L189.298 108.636C181.116 99.2681 173.743 101.718 170.348 103.119C174.45 96.4536 174.574 89.0823 168.73 82.4074C160.665 73.2731 148.847 73.7298 137.137 84.0151L109.5 108.092L155.55 160.789L166.441 151.088ZM127.871 106.822L142.158 94.3165C148.833 88.4726 154.099 88.2436 158.306 93.0449C162.631 97.9633 161.69 103.228 154.781 109.188L140.728 121.46L127.871 106.822Z" stroke="white" stroke-width="0.7642" stroke-miterlimit="10"/>
<path d="M240.671 100.847C259.636 91.1532 263.159 77.1159 260.714 64.5939L247.486 71.3675C248.064 79.2075 245.835 85.2897 236.118 90.3116C223.124 96.8515 211.314 89.8198 205.007 77.5281C198.701 65.1193 200.936 52.2508 213.462 45.9445C224.7 40.222 231.599 44.0898 235.574 47.7208L248.802 40.9472C241.557 31.5797 227.054 25.9495 208.323 35.526C186.901 46.387 182.668 67.7951 191.427 85.1204C200.303 102.329 218.898 111.941 240.671 100.847Z" stroke="white" stroke-width="0.7642" stroke-miterlimit="10"/>
<path d="M334.423 69.1106L333.265 57.1749L290.197 67.3131L285.885 49.173L324.74 39.9668L322.06 28.3806L283.205 37.5868L279.592 22.3725L320.554 12.7003L317.874 1.11412L262.634 14.1658L278.716 82.1619L334.423 69.1106Z" stroke="white" stroke-width="0.7642" stroke-miterlimit="10"/>
<path d="M432.38 46.2716C435.55 34.8081 438.722 21.1214 440.368 13.1666L440.485 13.1667C440.823 26.2717 442.669 54.1209 443.583 76.821L455.982 80.2261C471.214 58.2435 485.391 38.1321 491.954 27.3739L492.071 27.374C489.607 34.626 486.319 46.6744 483.032 58.6059L475.634 85.6272L489.32 89.3846L507.872 21.8898L487.284 16.2538C474.396 34.4944 460.806 53.0853 455.181 62.2064L455.064 62.2063C455.306 53.431 453.34 29.7939 451.49 6.50786L431.136 0.872044L412.468 68.3667L425.335 71.8892L432.38 46.2716Z" stroke="white" stroke-width="0.7642" stroke-miterlimit="10"/>
<path d="M506.511 99.2296L521.733 87.7777L549.096 104.419L546.27 123.371L559.951 131.692L570.437 56.2328L554.651 46.6231L493.648 91.4949L506.511 99.2296ZM556.862 59.3789C555.686 64.7601 554.274 73.7681 551.448 92.0184L531.101 79.7132C543.864 70.248 553.114 62.8855 556.862 59.3789Z" stroke="white" stroke-width="0.7642" stroke-miterlimit="10"/>
<path d="M572.809 145.51L590.376 128.678C599.394 120.146 606.538 113.249 612.511 106.702L612.628 106.82C609.929 115.592 600.644 157.823 597.589 171.51L608.927 183.338L659.638 134.946L650.287 125.109L635.647 139.135C627.332 147.084 618.315 155.617 613.044 161.579L612.927 161.462C615.743 152.923 619.156 132.216 626.208 99.8123L614.168 87.281L563.458 135.673L572.809 145.51Z" stroke="white" stroke-width="0.7642" stroke-miterlimit="10"/>
<path d="M624.699 209.212L683.472 171.124L675.411 158.831L616.754 196.801L624.699 209.212Z" stroke="white" stroke-width="0.7642" stroke-miterlimit="10"/>
<path d="M639.649 236.255L665.402 224.93L681.046 260.515L692.049 255.611L676.405 220.143L693.027 212.788L709.722 250.831L720.608 246.161L697.958 194.657L633.812 222.793L639.649 236.255Z" stroke="white" stroke-width="0.7642" stroke-miterlimit="10"/>
<path d="M669.27 339.249L681.205 338.675L672.94 295.024L691.313 291.531L698.764 330.852L710.466 328.641L703.016 289.319L718.346 286.409L726.263 327.837L737.966 325.625L727.372 269.803L658.56 282.841L669.27 339.249Z" stroke="white" stroke-width="0.7642" stroke-miterlimit="10"/>
<path d="M720.626 349.711C711.265 349.351 703.539 353.555 698.486 376.718C695.077 392.276 691.681 395.666 686.182 395.427C681.034 395.188 677.294 391.089 677.773 379.389C678.37 367.104 683.172 362.077 689.96 360.212L690.676 345.47C677.921 347.095 667.966 356.446 667.01 377.624C665.935 400.322 675.169 410.042 686.986 410.638C696.931 411.116 705.125 407.38 711.001 381.41C714.173 367.489 716.75 364.684 721.43 364.922C726.812 365.161 729.264 370.195 728.905 378.97C728.308 391.489 723.04 393.824 719.178 394.757L718.462 409.382C726.185 408.921 738.827 403.434 739.903 379.8C740.62 363.653 734.081 350.425 720.626 349.711Z" stroke="white" stroke-width="0.7642" stroke-miterlimit="10"/>
<path d="M716.199 451.035L660.168 435.653L656.293 449.807L712.441 465.072L705.749 489.52L717.095 492.573L734.356 429.64L722.892 426.587L716.199 451.035Z" stroke="white" stroke-width="0.7642" stroke-miterlimit="10"/>
<path d="M680.59 492.42C662.697 482.575 641.866 486.767 630.497 507.115C618.425 528.867 627.298 548.649 644.372 558.143C661.095 567.403 682.628 563.679 694.114 542.863C705.483 522.515 697.547 501.797 680.59 492.42ZM684.291 536.886C676.907 550.218 663.217 550.79 651.756 544.461C640.647 538.366 633.17 526.658 640.436 513.56C647.586 500.579 661.277 499.422 673.322 506.103C684.549 512.198 691.207 524.256 684.291 536.886Z" stroke="white" stroke-width="0.7642" stroke-miterlimit="10"/>
<path d="M326.487 657.527L318.827 715.321L293.673 712.02L292.141 723.719L357.071 732.323L358.604 720.624L333.45 717.207L341.111 659.53L326.487 657.527Z" stroke="white" stroke-width="0.7642" stroke-miterlimit="10"/>
<path d="M220.983 620.569L205.061 630.967L178.869 612.572L182.982 593.855L169.886 584.599L154.253 659.234L169.453 669.896L233.378 629.239L220.983 620.569ZM167.945 656.907C169.471 651.643 171.468 642.753 175.464 624.621L194.874 638.329C181.761 646.975 172.043 653.752 167.945 656.907Z" stroke="white" stroke-width="0.7642" stroke-miterlimit="10"/>
<path d="M449.349 652.731L452.029 664.434L493.464 648.561L500.117 666.118L462.778 680.357L466.98 691.477L504.318 677.238L509.921 691.869L470.475 706.808L474.794 718.045L527.934 697.737L502.957 632.306L449.349 652.731Z" stroke="white" stroke-width="0.7642" stroke-miterlimit="10"/>
<path d="M538.316 608.704C520.753 620.739 519.218 635.129 523.185 647.185L535.362 638.772C533.731 631.048 535.141 624.731 544.156 618.539C556.216 610.36 568.73 615.637 576.676 627.111C584.504 638.585 584.024 651.69 572.55 659.518C562.129 666.645 554.878 663.713 550.434 660.667L538.141 669.079C546.557 677.395 561.647 681.037 578.976 669.119C598.763 655.565 600.071 633.803 589.088 617.763C578.104 601.839 558.337 594.917 538.316 608.704Z" stroke="white" stroke-width="0.7642" stroke-miterlimit="10"/>
<path d="M394.515 730.955L392.311 710.828C391.035 699.477 389.76 687.073 388.129 679.232L388.363 679.232C393.504 686.609 407.881 701.833 429.152 727.01L446.354 725.037L438.581 655.528L425.241 657.037L427.909 681.142C429.302 693.429 430.345 703.259 431.975 712.036L431.741 712.036C426.366 704.542 398.55 671.754 389.433 661.097L373.168 662.954L380.941 732.463L394.515 730.955Z" stroke="white" stroke-width="0.7642" stroke-miterlimit="10"/>
<path d="M280.865 646.953L271.012 673.152L256.157 667.522C245.981 663.651 244.23 659.788 247.162 652.185L247.984 650.08C250.447 643.53 251.972 639.319 251.975 636.043L237.823 630.764C237.585 634.04 235.474 639.187 233.715 643.982L232.542 647.023C228.201 658.72 233.812 663.99 236.618 666.333C228.896 665.858 222.224 669.244 219.174 677.549C214.833 689.011 221.025 699.197 235.528 704.71L269.799 717.614L294.433 652.114L280.865 646.953ZM260.219 701.926L242.558 695.239C234.253 692.072 231.567 687.506 233.795 681.658C236.142 675.459 241.174 673.826 249.713 677.11L267.14 683.679L260.219 701.926Z" stroke="white" stroke-width="0.7642" stroke-miterlimit="10"/>
</g>
<defs>
<filter id="filter0_d" x="0.812988" y="0.383789" width="743.556" height="740.565" filterUnits="userSpaceOnUse" color-interpolation-filters="sRGB">
<feFlood flood-opacity="0" result="BackgroundImageFix"/>
<feColorMatrix in="SourceAlpha" type="matrix" values="0 0 0 0 0 0 0 0 0 0 0 0 0 0 0 0 0 0 127 0"/>
<feOffset dy="4"/>
<feGaussianBlur stdDeviation="2"/>
<feColorMatrix type="matrix" values="0 0 0 0 0 0 0 0 0 0 0 0 0 0 0 0 0 0 0.25 0"/>
<feBlend mode="normal" in2="BackgroundImageFix" result="effect1_dropShadow"/>
<feBlend mode="normal" in="SourceGraphic" in2="effect1_dropShadow" result="shape"/>
</filter>
</defs>
</svg>
