<svg width="64" height="20" viewBox="0 0 64 20" fill="none" xmlns="http://www.w3.org/2000/svg">
<mask id="mask0" mask-type="alpha" maskUnits="userSpaceOnUse" x="0" y="15" width="5" height="5">
<path fill-rule="evenodd" clip-rule="evenodd" d="M0 15.689H4.31125V19.9998H0V15.689Z" fill="white"/>
</mask>
<g mask="url(#mask0)">
<path fill-rule="evenodd" clip-rule="evenodd" d="M2.15569 15.689C3.34556 15.689 4.31138 16.6535 4.31138 17.8447C4.31138 19.0345 3.34556 20.0003 2.15569 20.0003C0.965819 20.0003 0 19.0345 0 17.8447C0 16.6535 0.965819 15.689 2.15569 15.689Z" fill="black"/>
</g>
<path fill-rule="evenodd" clip-rule="evenodd" d="M9.28446 14.0932C10.7148 14.0932 11.8136 13.14 12.2072 12.1869L14.0718 13.3881C13.1186 15.0679 11.4199 16.2489 9.16041 16.2489C6.15536 16.2489 3.41992 13.8654 3.41992 10.3831C3.41992 6.92234 6.15536 4.51855 9.16041 4.51855C11.4401 4.51855 13.1186 5.71982 14.0528 7.39956L12.187 8.60082C11.8136 7.64766 10.7351 6.6945 9.28446 6.6945C7.00472 6.6945 5.76169 8.37297 5.76169 10.4046C5.76169 12.435 7.00472 14.0932 9.28446 14.0932Z" fill="black"/>
<path fill-rule="evenodd" clip-rule="evenodd" d="M16.9335 8.89087H22.674C22.55 7.64784 21.3474 6.69468 19.9171 6.69468C18.2386 6.69468 17.2854 7.64784 16.9335 8.89087ZM16.8068 10.9846C16.8068 12.6631 18.0106 14.0935 20.041 14.0935C21.4714 14.0935 22.465 13.3682 22.8169 12.4138L24.8283 13.3682C23.8751 15.0467 22.1954 16.2479 19.9157 16.2479C16.9321 16.2479 14.4043 13.8656 14.4043 10.3834C14.4043 6.92263 16.7878 4.51758 19.9157 4.51758C22.7979 4.51758 25.1815 6.79732 25.1815 10.2593L24.9321 10.9846H16.8068Z" fill="black"/>
<path fill-rule="evenodd" clip-rule="evenodd" d="M26.5059 4.76694H28.6603L28.9096 5.72011L29.0337 5.84416L29.159 5.72011C29.635 4.99479 30.8375 4.51758 31.7907 4.51758C34.6717 4.51758 36.3299 6.42517 36.3299 9.0568V15.9998H33.9463V9.07832C33.883 7.54415 33.1375 6.69479 31.5628 6.69479C30.1539 6.69479 28.9717 7.83402 28.9299 9.22262V16.0201H26.5464V4.76694H26.5059Z" fill="black"/>
<path fill-rule="evenodd" clip-rule="evenodd" d="M36.9102 4.76707H39.0874V2.38354L40.9722 0H41.4279V4.78732H43.8532V6.92276H41.4279V12.6632C41.4279 13.3886 41.9266 13.8658 42.6507 13.8658L44.0811 13.6164V15.7721L42.7545 16.0202C40.3709 16.0202 39.0659 14.8189 39.0659 12.6632V6.92276H36.8887V4.76707H36.9102Z" fill="black"/>
<path fill-rule="evenodd" clip-rule="evenodd" d="M45.5312 4.76691H47.6857L47.935 5.96817L48.0591 6.09349L48.1844 5.96817C48.9097 5.01628 49.8629 4.53906 50.816 4.53906C51.2933 4.53906 51.5414 4.53906 52.0186 4.78716V6.9226H50.5882C49.1793 6.9226 47.9971 8.06184 47.9553 9.45044V15.9998H45.5718V4.76691H45.5312Z" fill="black"/>
<path fill-rule="evenodd" clip-rule="evenodd" d="M57.6137 6.69456C55.3339 6.69456 54.1111 8.37303 54.1111 10.4047C54.1111 12.435 55.3339 14.1135 57.6137 14.1135C59.644 14.1135 61.0744 12.435 61.0744 10.4047C61.0744 8.35278 59.644 6.69456 57.6137 6.69456ZM63.2317 16.0213H61.076L60.8279 15.0681L60.7026 14.9428L60.5798 15.0681C59.8545 15.7922 58.6722 16.2694 57.471 16.2694C54.3621 16.2694 51.7305 13.8859 51.7305 10.4049C51.7305 6.94285 54.3621 4.53906 57.471 4.53906C58.6722 4.53906 59.8545 5.01628 60.5798 5.74159L60.7026 5.86564L60.8279 5.74159L61.076 4.78843H63.2317V16.0213Z" fill="black"/>
</svg>
