<svg width="223" height="27" viewBox="0 0 223 27" fill="none" xmlns="http://www.w3.org/2000/svg">
<path d="M2.5625 25.5215C3.97773 25.5215 5.125 24.3742 5.125 22.959C5.125 21.5438 3.97773 20.3965 2.5625 20.3965C1.14727 20.3965 0 21.5438 0 22.959C0 24.3742 1.14727 25.5215 2.5625 25.5215Z" fill="black"/>
<path d="M11.0036 18.5875C12.6617 18.5875 14.0184 17.3816 14.4706 16.3265L16.7316 17.8338C15.5257 19.7934 13.5661 21.3008 10.8529 21.3008C7.23527 21.3008 4.06982 18.4368 4.06982 14.3669C4.06982 10.2971 7.386 7.43311 10.8529 7.43311C13.5661 7.43311 15.5257 8.94046 16.7316 10.9L14.4706 12.4074C14.0184 10.9 12.8125 9.69413 11.0036 9.69413C8.29041 9.69413 6.93379 11.6537 6.93379 14.0655C6.93379 16.4772 8.29041 18.5875 11.0036 18.5875Z" fill="black"/>
<path d="M20.0481 14.8191C20.0481 16.7787 21.5554 18.5875 23.9672 18.5875C25.6253 18.5875 26.8311 17.6831 27.2833 16.628L29.6951 17.8338C28.4892 19.7934 26.5297 21.3008 23.8164 21.3008C20.1988 21.3008 17.1841 18.4368 17.1841 14.3669C17.1841 10.2971 20.0481 7.43311 23.8164 7.43311C27.2833 7.43311 30.1473 10.1463 30.1473 14.2162L29.8458 15.1206H20.0481V14.8191ZM20.1988 12.4074H26.9819C26.8311 10.9 25.4745 9.84487 23.6657 9.84487C21.7061 9.69413 20.651 10.9 20.1988 12.4074Z" fill="black"/>
<path d="M31.6543 7.43365H34.2168L34.5183 8.63953H34.669L34.8197 8.4888C35.4227 7.58439 36.7793 6.98145 37.9852 6.98145C41.4521 6.98145 43.4116 9.24247 43.4116 12.4079V20.6984H40.5477V12.5587C40.5477 10.7498 39.6433 9.69468 37.6837 9.69468C36.0256 9.69468 34.669 11.0513 34.5183 12.7094V20.8491H31.6543V7.43365Z" fill="black"/>
<path d="M44.0146 7.43351H46.5771V4.56954L48.8382 1.70557H49.4411V7.43351H52.3051V9.99601H49.4411V16.7791C49.4411 17.6835 50.0441 18.2864 50.9485 18.2864L52.6066 17.985V20.5475L51.0992 20.8489C48.2352 20.8489 46.7279 19.3416 46.7279 16.7791V9.99601H44.1654L44.0146 7.43351Z" fill="black"/>
<path d="M54.2642 7.43379H56.8267L57.1281 8.94115H57.2789L57.4296 8.79041C58.334 7.58453 59.3892 7.13232 60.595 7.13232C61.198 7.13232 61.4995 7.13232 62.1024 7.43379V9.99629H60.2936C58.6355 9.99629 57.2789 11.3529 57.1281 13.011V20.8492H54.2642V7.43379Z" fill="black"/>
<path d="M75.3678 20.8494H72.8053L72.5038 19.6435L72.3531 19.4928L72.2023 19.6435C71.2979 20.5479 69.9413 21.1509 68.434 21.1509C64.6656 21.1509 61.6509 18.2869 61.6509 14.217C61.6509 10.1472 64.8163 7.2832 68.434 7.2832C69.9413 7.2832 71.2979 7.88614 72.2023 8.79056H72.3531L72.5038 8.63982L72.8053 7.43394H75.3678V20.8494ZM68.7354 9.69497C66.0222 9.69497 64.5148 11.6545 64.5148 14.0663C64.5148 16.4781 66.0222 18.4376 68.7354 18.4376C71.1472 18.4376 72.8053 16.4781 72.8053 14.0663C72.8053 11.6545 71.1472 9.69497 68.7354 9.69497Z" fill="black"/>
<path d="M83.0552 0.5H90.7427C97.0736 0.5 100.088 4.72059 100.088 11.0515C100.088 17.3824 96.9228 21.4522 90.5919 21.4522H83.2059V0.5H83.0552ZM90.2905 19.0404C95.2647 19.0404 97.2243 16.0257 97.2243 11.0515C97.2243 6.07721 95.4155 2.76103 90.5919 2.76103H85.7684V19.0404H90.2905Z" fill="#595B59"/>
<path d="M101.897 13.9157C101.897 9.5444 104.761 5.92676 109.132 5.92676C113.654 5.92676 116.066 9.39367 116.066 14.5187H104.309C104.459 17.5334 106.118 19.9451 109.132 19.9451C111.393 19.9451 112.75 18.89 113.353 16.7797H115.614C114.86 20.0959 112.599 21.9047 109.132 21.9047C104.61 21.9047 101.897 18.2871 101.897 13.9157ZM104.309 12.7098H113.353C113.202 9.69514 111.695 7.88632 108.982 7.88632C106.268 7.73558 104.761 9.84588 104.309 12.7098Z" fill="#595B59"/>
<path d="M116.519 6.22754H119.082L122.247 15.8746C122.699 17.2312 123.302 19.04 123.302 19.04C123.302 19.04 123.905 17.2312 124.357 15.8746L127.523 6.22754H129.934L124.508 21.4518H121.795L116.519 6.22754Z" fill="#595B59"/>
<path d="M130.386 13.9157C130.386 9.5444 133.25 5.92676 137.622 5.92676C142.144 5.92676 144.555 9.39367 144.555 14.5187H132.798C132.949 17.5334 134.607 19.9451 137.622 19.9451C139.883 19.9451 141.239 18.89 141.842 16.7797H144.103C143.349 20.0959 141.088 21.9047 137.622 21.9047C133.099 21.9047 130.386 18.2871 130.386 13.9157ZM132.949 12.7098H141.993C141.842 9.69514 140.335 7.88632 137.622 7.88632C134.758 7.73558 133.25 9.84588 132.949 12.7098Z" fill="#595B59"/>
<path d="M146.967 0.5H149.379V21.4522H146.967V0.5Z" fill="#595B59"/>
<path d="M151.791 13.9157C151.791 9.5444 154.655 5.92676 159.177 5.92676C163.699 5.92676 166.412 9.5444 166.412 13.9157C166.412 18.2871 163.699 21.9047 159.177 21.9047C154.655 21.9047 151.791 18.2871 151.791 13.9157ZM164 13.9157C164 10.5996 162.342 7.88632 159.177 7.88632C156.011 7.88632 154.353 10.5996 154.353 13.9157C154.353 17.2319 156.011 19.9451 159.177 19.9451C162.342 19.9451 164 17.2319 164 13.9157Z" fill="#595B59"/>
<path d="M168.824 6.22808H171.235V8.33838C172.441 6.83103 173.949 5.77588 176.059 5.77588C179.827 5.77588 182.541 8.63985 182.541 13.7648C182.541 18.5884 179.978 21.7538 175.908 21.7538C173.798 21.7538 172.441 21.1509 171.085 19.4928V26.1251H168.824V6.22808ZM180.129 13.9156C180.129 10.4487 178.622 7.88617 175.758 7.88617C172.441 7.88617 170.934 10.5994 170.934 13.9156C170.934 17.2318 172.291 19.7943 175.758 19.7943C178.772 19.945 180.129 17.3825 180.129 13.9156Z" fill="#595B59"/>
<path d="M184.048 13.9157C184.048 9.5444 186.912 5.92676 191.283 5.92676C195.805 5.92676 198.217 9.39367 198.217 14.5187H186.46C186.61 17.5334 188.268 19.9451 191.283 19.9451C193.544 19.9451 194.901 18.89 195.504 16.7797H197.765C197.011 20.0959 194.75 21.9047 191.283 21.9047C186.761 21.9047 184.048 18.2871 184.048 13.9157ZM186.61 12.7098H195.654C195.504 9.69514 193.996 7.88632 191.283 7.88632C188.419 7.73558 186.912 9.84588 186.61 12.7098Z" fill="#595B59"/>
<path d="M202.89 8.79087C203.794 7.28352 205.452 6.07764 207.412 6.07764C207.864 6.07764 208.015 6.07764 208.316 6.22837V8.4894H208.165C207.864 8.33867 207.562 8.33867 207.11 8.33867C204.698 8.33867 202.739 10.1475 202.739 13.0115V21.4526H200.327V6.22837H202.739V8.79087H202.89Z" fill="#595B59"/>
<path d="M209.673 16.4781H212.085C212.386 19.1913 214.195 19.7943 216.456 19.7943C219.018 19.7943 219.923 18.7391 219.923 17.2318C219.923 15.5737 218.717 15.1215 216.004 14.5185C212.989 13.9156 210.276 13.3126 210.276 9.99647C210.276 7.43397 212.235 5.77588 215.702 5.77588C219.471 5.77588 221.279 7.5847 221.581 10.4487H219.169C218.868 8.48911 217.813 7.5847 215.552 7.5847C213.441 7.5847 212.537 8.48911 212.537 9.695C212.537 11.3531 214.044 11.6546 216.607 12.2575C219.621 12.8604 222.184 13.6141 222.184 17.081C222.184 20.0957 219.621 21.7538 216.154 21.7538C212.235 21.9046 209.824 19.945 209.673 16.4781Z" fill="#595B59"/>
</svg>
