<?xml version="1.0" encoding="utf-8"?>
<!-- Generator: Adobe Illustrator 23.0.3, SVG Export Plug-In . SVG Version: 6.00 Build 0)  -->
<svg version="1.1" id="Layer_1" xmlns="http://www.w3.org/2000/svg" xmlns:xlink="http://www.w3.org/1999/xlink" x="0px" y="0px"
	 viewBox="0 0 151 21" style="enable-background:new 0 0 151 21;" xml:space="preserve">
<style type="text/css">
	.st0{fill:#FFFFFF;}
	.st1{fill:#595B59;}
</style>
<g>
	<g>
		<g>
			<circle class="st0" cx="4.5" cy="18.1" r="1.7"/>
			<g>
				<path class="st0" d="M10.1,15.2c1.1,0,2-0.8,2.3-1.5l1.5,1c-0.8,1.3-2.1,2.3-3.9,2.3c-2.4,0-4.5-1.9-4.5-4.6
					c0-2.7,2.2-4.6,4.5-4.6c1.8,0,3.1,1,3.9,2.3l-1.5,1c-0.3-0.8-1.1-1.5-2.3-1.5c-1.8,0-2.8,1.3-2.8,2.9S8.3,15.2,10.1,15.2z"/>
				<path class="st0" d="M16,12.7c0,1.3,1,2.5,2.6,2.5c1.1,0,1.9-0.6,2.2-1.3l1.6,0.8c-0.8,1.3-2.1,2.3-3.9,2.3
					c-2.4,0-4.4-1.9-4.4-4.6c0-2.7,1.9-4.6,4.4-4.6c2.3,0,4.2,1.8,4.2,4.5l-0.2,0.6H16z M16.1,11.1h4.5c-0.1-1-1-1.7-2.2-1.7
					C17.2,9.3,16.4,10.1,16.1,11.1z"/>
				<path class="st0" d="M23.7,7.8h1.7l0.2,0.8l0.1,0.1l0.1-0.1c0.4-0.6,1.3-1,2.1-1c2.3,0,3.6,1.5,3.6,3.6v5.5h-1.9v-5.5
					c0-1.2-0.6-1.9-1.9-1.9c-1.1,0-2,0.9-2.1,2v5.4h-1.9L23.7,7.8L23.7,7.8z"/>
				<path class="st0" d="M31.9,7.8h1.7V5.9L35.1,4h0.4v3.8h1.9v1.7h-1.9V14c0,0.6,0.4,1,1,1l1.1-0.2v1.7l-1,0.2
					c-1.9,0-2.9-1-2.9-2.7V9.5h-1.7L31.9,7.8L31.9,7.8z"/>
				<path class="st0" d="M38.8,7.8h1.7l0.2,1l0.1,0.1l0.1-0.1c0.6-0.8,1.3-1.1,2.1-1.1c0.4,0,0.6,0,1,0.2v1.7h-1.1
					c-1.1,0-2,0.9-2.1,2v5.2h-1.9L38.8,7.8L38.8,7.8z"/>
				<path class="st0" d="M52.7,16.7H51L50.8,16l-0.1-0.1L50.6,16c-0.6,0.6-1.5,1-2.5,1c-2.5,0-4.5-1.9-4.5-4.6
					c0-2.7,2.1-4.6,4.5-4.6c1,0,1.9,0.4,2.5,1l0.1,0.1l0.1-0.1L51,7.8h1.7V16.7z M48.3,9.3c-1.8,0-2.8,1.3-2.8,2.9s1,2.9,2.8,2.9
					c1.6,0,2.7-1.3,2.7-2.9C51,10.6,49.9,9.3,48.3,9.3z"/>
			</g>
		</g>
	</g>
	<g>
		<g>
			<path class="st1" d="M57.8,3.2h5.1c4.2,0,6.2,2.8,6.2,7c0,4.2-2.1,6.9-6.3,6.9h-4.9V3.2z M62.7,15.6c3.3,0,4.6-2.1,4.6-5.4
				c0-3.3-1.2-5.5-4.4-5.5h-3.2v10.8H62.7z"/>
			<path class="st1" d="M70.3,12.1c0-2.9,1.9-5.3,4.8-5.3c3,0,4.6,2.3,4.6,5.7h-7.8c0.1,2,1.2,3.6,3.2,3.6c1.5,0,2.4-0.7,2.8-2.1
				h1.5c-0.5,2.2-2,3.4-4.3,3.4C72.1,17.4,70.3,15,70.3,12.1z M72,11.3h6c-0.1-2-1.1-3.2-2.9-3.2C73.2,8.1,72.2,9.5,72,11.3z"/>
			<path class="st1" d="M80,7.1h1.7l2.1,6.4c0.3,0.9,0.7,2.1,0.7,2.1h0c0,0,0.4-1.2,0.7-2.1l2.1-6.4h1.6l-3.6,10.1h-1.8L80,7.1z"/>
			<path class="st1" d="M89.3,12.1c0-2.9,1.9-5.3,4.8-5.3c3,0,4.6,2.3,4.6,5.7h-7.8c0.1,2,1.2,3.6,3.2,3.6c1.5,0,2.4-0.7,2.8-2.1
				h1.5c-0.5,2.2-2,3.4-4.3,3.4C91.1,17.4,89.3,15,89.3,12.1z M90.9,11.3h6c-0.1-2-1.1-3.2-2.9-3.2C92.2,8.1,91.1,9.5,90.9,11.3z"/>
			<path class="st1" d="M100.2,3.2h1.6v13.9h-1.6V3.2z"/>
			<path class="st1" d="M103.4,12.1c0-2.9,1.9-5.3,4.9-5.3c3,0,4.8,2.4,4.8,5.3c0,2.9-1.8,5.3-4.8,5.3
				C105.3,17.4,103.4,15,103.4,12.1z M111.5,12.1c0-2.2-1.1-4-3.2-4s-3.2,1.8-3.2,4c0,2.2,1.1,4,3.2,4S111.5,14.3,111.5,12.1z"/>
			<path class="st1" d="M114.7,7.1h1.6v1.4h0c0.8-1,1.8-1.7,3.2-1.7c2.5,0,4.3,1.9,4.3,5.3c0,3.2-1.7,5.3-4.4,5.3
				c-1.4,0-2.3-0.4-3.2-1.5h0v4.4h-1.6V7.1z M122.3,12.1c0-2.3-1-4-2.9-4c-2.2,0-3.2,1.8-3.2,4s0.9,3.9,3.2,3.9
				C121.3,16.1,122.3,14.4,122.3,12.1z"/>
			<path class="st1" d="M124.9,12.1c0-2.9,1.9-5.3,4.8-5.3c3,0,4.6,2.3,4.6,5.7h-7.8c0.1,2,1.2,3.6,3.2,3.6c1.5,0,2.4-0.7,2.8-2.1
				h1.5c-0.5,2.2-2,3.4-4.3,3.4C126.7,17.4,124.9,15,124.9,12.1z M126.5,11.3h6c-0.1-2-1.1-3.2-2.9-3.2
				C127.8,8.1,126.8,9.5,126.5,11.3z"/>
			<path class="st1" d="M137.4,8.7L137.4,8.7c0.6-1,1.7-1.8,3-1.8c0.3,0,0.4,0,0.6,0.1v1.5H141c-0.2-0.1-0.4-0.1-0.7-0.1
				c-1.6,0-2.9,1.2-2.9,3.1v5.6h-1.6V7.1h1.6V8.7z"/>
			<path class="st1" d="M141.8,13.9h1.6c0.2,1.8,1.4,2.2,2.9,2.2c1.7,0,2.3-0.7,2.3-1.7c0-1.1-0.8-1.4-2.6-1.8c-2-0.4-3.8-0.8-3.8-3
				c0-1.7,1.3-2.8,3.6-2.8c2.5,0,3.7,1.2,3.9,3.1h-1.6c-0.2-1.3-0.9-1.9-2.4-1.9c-1.4,0-2,0.6-2,1.4c0,1.1,1,1.3,2.7,1.7
				c2,0.4,3.7,0.9,3.7,3.2c0,2-1.7,3.1-4,3.1C143.5,17.4,142,16.1,141.8,13.9z"/>
		</g>
	</g>
</g>
</svg>
