<svg width="630" height="581" viewBox="0 0 630 581" fill="none" xmlns="http://www.w3.org/2000/svg">
<g clip-path="url(#clip0)">
<path d="M629.747 288.702C629.235 272.065 627.062 255.3 623.481 239.047C619.901 223.433 613.763 208.844 606.731 194.51C559.676 97.246 456.999 41.7032 357.39 12.78C332.712 5.61318 307.65 0.749985 281.949 0.23807C262.769 -0.145866 244.612 6.25307 227.989 15.4675C222.491 13.2919 216.609 12.1401 210.855 11.2442C191.675 7.9168 172.367 5.35722 152.675 4.58935C134.263 3.82148 116.617 6.38105 98.8435 11.2442C58.8212 22.1224 22.3791 53.7332 8.05801 93.0227C0.258128 114.651 -2.55494 136.535 2.55973 159.188C6.77934 178.129 19.1824 193.486 33.6314 205.772C48.4639 218.442 67.2604 227.144 85.5453 233.159C90.9158 234.951 96.414 236.359 102.04 237.383C109.84 266.562 127.614 293.693 150.885 313.146C159.197 320.057 168.147 326.2 177.609 331.447C163.033 359.731 152.036 393.901 156.128 425.896C158.557 444.069 163.288 459.682 172.495 475.807C179.911 488.861 191.036 499.995 202.544 509.338C224.792 527.383 253.307 538.901 279.775 549.139C305.604 559.25 332.328 566.928 359.436 572.175C416.721 583.438 477.841 587.149 529.116 554.514C586.144 518.168 615.17 449.828 623.865 384.942C628.212 353.332 630.77 320.569 629.747 288.702Z" fill="#F0F0E9"/>
</g>
<defs>
<clipPath id="clip0">
<rect width="630" height="580" fill="white" transform="translate(0 0.236328)"/>
</clipPath>
</defs>
</svg>
