<svg width="413" height="442" viewBox="0 0 413 442" fill="none" xmlns="http://www.w3.org/2000/svg">
<g clip-path="url(#clip0)">
<path d="M111.229 121.473C75.7649 116.739 44.0618 145.465 37.2913 179.247C33.6374 197.322 35.1419 216.795 35.0345 235.085C34.927 253.59 34.8195 272.202 34.7121 290.707C34.7121 297.27 39.2257 302.972 45.8888 303.403C52.9817 303.833 60.6119 298.776 64.1583 292.751C75.2276 273.924 81.6756 253.59 82.213 231.642C82.4279 222.282 80.8159 213.137 80.386 203.884C80.4935 201.625 80.4935 201.195 80.386 202.593C80.4935 201.41 80.8159 200.226 81.0308 199.151C80.1711 201.733 80.2786 201.948 81.0308 199.904C80.601 200.657 80.2786 201.41 79.8487 202.163C81.2458 200.226 80.9234 200.442 78.9889 202.916C80.601 201.41 80.386 201.517 78.2367 203.346C75.9798 204.315 75.8724 204.422 77.8068 203.669C75.7649 204.1 75.7649 204.207 77.6993 203.992C74.7977 194.847 71.896 185.702 69.1019 176.45C60.9343 190.651 52.7667 204.853 44.5991 219.054C53.7339 223.035 62.8687 227.016 72.111 230.889C79.3113 216.149 86.0818 201.087 91.8851 185.595C97.7959 169.887 102.524 148.369 86.8341 136.427C74.3678 126.852 55.9908 131.048 44.7066 140.193C31.2731 151.167 23.8578 167.843 21.9234 184.841C18.9143 210.878 24.6101 239.065 42.0199 259.399C61.9015 282.638 91.2403 289.524 120.472 282.531C149.488 275.537 174.851 255.526 191.293 230.889C205.801 209.049 227.832 156.869 186.672 149.768C159.053 144.927 127.242 152.243 102.095 163.97C73.723 177.203 41.9124 198.828 32.8851 230.566C28.264 246.812 31.488 264.456 40.4079 278.658C48.7904 292.106 62.9762 301.036 77.9143 305.554C93.7121 310.288 111.014 310.073 126.92 305.985C145.404 301.251 159.805 289.093 168.402 272.095C172.056 264.886 170.659 256.71 164.963 251.33C132.078 220.238 85.0072 195.277 39.7631 215.719C27.2968 221.314 16.2276 229.383 7.84504 240.249C-2.14949 253.375 0.214807 269.513 0.64468 284.898C0.859616 292.106 0.967084 299.422 4.51353 305.877C7.63011 311.472 13.111 315.668 17.7321 319.971C27.1893 329.116 36.3241 339.337 46.641 347.513C56.743 355.582 70.7139 356.12 82.9653 358.164C95.8614 360.209 108.865 363.113 121.869 364.297C137.129 365.588 149.81 356.551 162.814 349.665C174.743 343.317 186.672 337.077 198.601 330.73C204.727 327.502 210.53 323.844 215.473 318.895C220.847 313.516 224.823 306.845 228.907 300.498C236.215 289.093 243.63 277.689 250.938 266.393C258.998 253.912 267.596 241.755 271.894 227.338C275.441 215.289 277.375 202.593 279.524 190.328C284.468 161.71 285.973 133.63 280.814 104.904C276.515 81.0198 269.422 56.2747 258.783 34.4345C248.466 13.2398 229.767 -1.82238 205.157 0.544538C179.579 3.01904 156.903 20.0178 139.064 37.447C121.224 54.8761 106.716 75.748 96.2913 98.4489C84.8997 123.194 79.0964 151.059 85.9744 177.526C96.8287 220.022 138.311 250.685 179.902 258.969C205.264 264.026 232.668 260.906 254.377 246.166C275.763 231.642 291.024 208.295 292.958 182.259C293.388 176.342 293.065 170.102 291.024 164.507C288.767 158.375 284.683 153.318 280.814 148.262C272.324 137.395 263.189 129.004 250.401 123.624C229.659 114.91 207.413 110.929 185.06 109.853C140.676 107.486 95.3241 119.859 57.9252 143.851C47.6083 150.414 35.2494 158.16 28.3715 168.488C20.2039 180.861 20.2039 197.322 18.2695 211.523C17.3022 218.516 15.6902 225.832 15.7977 232.825C15.9052 241.325 19.2367 247.995 24.0727 254.666C32.1328 265.962 40.3004 277.151 48.3605 288.448C55.9908 299.099 63.0837 310.826 72.2184 320.294C81.5682 329.869 94.0345 335.464 105.641 341.919C128.532 354.722 151.1 368.6 174.636 380.22C199.031 392.162 227.188 395.39 253.517 400.984C267.058 403.781 281.029 407.762 295 407.224C308.004 406.686 321.222 402.598 333.903 400.016C349.701 396.788 366.466 395.712 376.676 381.726C380.867 376.024 383.769 369.354 387.1 363.113C390.432 356.873 393.656 350.633 396.987 344.393C403.758 331.698 411.173 319.541 412.463 304.909C413.645 291.245 412.785 277.259 412.57 263.703C411.603 213.675 406.337 162.141 379.792 118.46C373.559 108.239 366.359 98.7717 358.191 90.0571C354.107 85.7536 349.916 80.5894 344.758 77.6846C338.095 73.919 330.572 73.3811 323.049 73.0583C297.149 71.7673 272.217 80.8046 249.756 92.7468C227.295 104.689 206.016 120.827 188.177 139.009C170.122 157.407 152.605 185.81 163.889 212.276C174.313 236.698 199.353 246.597 224.608 245.951C249.004 245.305 276.193 237.452 295.967 222.927C317.676 207.004 334.656 180.968 333.044 152.996C331.646 129.649 317.031 111.037 297.902 98.9868C277.59 86.184 253.517 78.2225 229.444 77.4694C204.727 76.7163 179.902 84.8929 159.053 97.911C117.248 124.055 86.9416 172.254 83.5026 221.636C81.8906 244.23 87.9088 268.759 103.814 285.435C121.546 304.048 145.082 312.763 170.444 314.054C194.41 315.237 219.02 309.643 241.266 300.82C263.297 291.998 283.393 279.518 301.233 263.81C310.368 255.849 318.428 246.812 325.843 237.236C331.002 230.674 336.698 223.358 336.268 214.536C335.945 207.435 331.217 199.473 328.422 193.018C326.166 187.746 324.231 184.519 318.32 182.69C315.526 181.829 312.625 181.183 309.723 180.646C302.63 179.247 295.43 178.709 288.229 178.494C275.763 178.063 263.297 179.677 251.153 182.259C237.612 185.164 224.286 188.93 211.175 193.341C197.311 197.967 185.06 203.131 174.206 213.352C164.856 222.174 155.936 231.427 146.801 240.356C141.75 245.305 136.592 250.147 132.508 255.957C127.565 262.95 124.878 270.696 122.621 278.873C115.743 303.833 110.585 331.698 124.34 355.26C136.914 376.669 165.716 382.049 188.606 381.188C201.825 380.758 213.539 373.549 225.253 367.955C238.042 361.822 252.228 356.658 263.082 347.406C272.647 339.229 280.384 327.179 287.37 316.851C294.785 305.985 301.663 294.258 306.392 281.885C315.526 258.108 316.708 232.395 308.756 208.08C301.34 185.487 287.37 165.153 269.422 149.553C260.718 142.022 249.756 135.674 238.149 134.491C224.178 132.984 211.067 137.18 199.246 144.604C178.075 157.729 160.987 179.247 145.834 198.72C114.991 237.774 92.4225 293.074 111.229 342.887C128.317 387.966 171.949 415.724 219.665 414.971C269.637 414.11 313.162 381.511 335.085 337.723C345.832 316.421 350.346 291.245 347.982 267.468C346.799 255.526 344.328 243.584 339.814 232.503C337.557 226.908 334.978 221.314 332.076 216.042C330.679 213.567 329.282 210.77 327.563 208.511C324.231 204.422 320.255 203.884 315.311 203.454C289.412 201.41 263.942 207.65 240.406 218.193C218.483 227.984 197.096 240.249 177.43 254.128C158.838 267.253 140.998 283.069 129.499 303.08C116.388 325.781 111.444 351.817 118.215 377.423C121.116 388.181 126.275 398.94 133.26 407.762C141.428 418.091 150.67 424.331 162.814 429.172C168.617 431.539 174.421 433.798 180.331 436.058C187.209 438.747 193.872 441.76 201.503 441.437C208.166 441.114 214.399 438.424 220.524 436.058C226.973 433.583 233.421 431.109 239.869 428.634C253.625 423.362 268.133 419.059 279.31 409.161C288.552 400.877 296.289 390.548 304.565 381.188C313.592 370.967 323.909 360.962 331.432 349.557C339.814 336.97 342.501 321.908 346.047 307.383C349.271 294.15 352.925 280.917 355.827 267.468C358.943 252.944 355.719 239.173 352.71 224.971C347.552 201.087 340.244 177.418 326.488 156.976C299.084 116.308 253.195 93.3923 207.091 80.8046C157.871 67.4638 106.716 62.8375 56.3132 57.9961C46.2112 57.0278 36.8614 63.9134 33.315 73.3811C30.7358 80.0515 29.876 94.6834 40.4079 95.7592C73.6155 98.9868 106.823 102.107 139.816 107.701C170.229 112.758 201.932 119.536 229.659 132.124C242.77 138.041 255.344 145.357 266.843 154.179C278.127 162.786 285.758 170.317 294.248 181.829C302.953 193.664 308.218 204.96 312.625 218.839C316.923 232.395 321.007 248.103 322.942 261.336C322.727 259.507 323.264 265.747 323.264 264.994C323.694 269.62 324.016 263.38 323.049 267.899C322.297 271.772 321.33 275.753 320.362 279.626C318.32 287.91 316.279 296.194 314.237 304.478C312.195 312.655 310.26 320.832 308.218 329.008C306.821 334.603 309.83 326.319 307.359 331.483C304.672 336.97 310.045 328.578 306.499 333.097C305.747 334.065 305.102 335.033 304.35 336.001C302.845 337.938 302.845 337.938 304.457 335.894C303.705 336.862 302.845 337.723 302.093 338.691C290.916 351.386 279.739 364.082 268.563 376.777C266.306 379.252 264.157 381.941 261.47 384.093C265.983 380.435 258.891 385.384 262.115 383.555C260.503 384.416 258.568 385.061 256.849 385.814C249.218 388.827 241.481 391.732 233.743 394.637C226.758 397.326 219.88 400.123 212.787 402.598C212.249 402.813 207.736 403.459 210.53 403.351C208.058 403.459 209.885 403.781 207.306 402.921C202.9 401.307 198.494 399.693 194.087 397.864C190.218 396.358 186.35 394.852 182.481 393.238C180.869 392.592 179.364 392.054 177.752 391.409C177.322 391.301 174.098 389.795 175.925 390.656C168.94 387.105 165.608 383.77 161.31 377.96C159.483 375.486 157.763 373.012 156.259 370.322C154.217 366.771 154.754 367.74 153.464 364.297C152.282 361.177 151.315 358.057 150.455 354.829C150.025 353.215 149.703 351.602 149.488 349.988C149.918 353.108 149.273 346.76 149.273 346.115C149.058 343.317 149.166 340.628 149.273 337.83C149.058 341.919 149.488 336.539 149.596 336.001C149.81 334.388 150.133 332.774 150.563 331.052C150.778 330.299 152.282 325.028 150.778 329.761C151.315 328.255 151.852 326.749 152.39 325.243C152.927 323.737 153.572 322.338 154.324 320.832C154.754 319.863 155.184 318.895 155.721 318.034C154.432 320.401 154.217 320.832 154.969 319.433C156.796 316.528 158.515 313.623 160.665 310.826C161.202 310.073 164.534 305.662 161.095 310.073C162.384 308.352 163.889 306.845 165.393 305.232C167.973 302.434 170.659 299.852 173.453 297.27C174.313 296.517 175.065 295.764 175.925 295.118C176.785 294.365 177.537 293.72 178.397 292.967C176.463 294.473 176.463 294.58 178.182 293.182C190.326 283.822 203.115 275.645 216.333 268.006C242.555 252.729 273.936 238.097 305.424 241.97C303.275 240.464 301.018 238.958 298.869 237.559C301.233 241.217 303.49 244.983 305.424 248.963C306.284 250.577 305.639 249.501 305.532 249.179C306.069 250.254 306.499 251.33 306.929 252.406C307.896 254.881 308.863 257.355 309.723 259.83C311.12 264.026 312.302 268.222 313.162 272.525C313.377 273.386 313.484 274.246 313.699 275.107C314.237 278.012 313.484 273.063 313.807 275.968C314.129 278.55 314.452 281.24 314.667 283.822C314.989 287.91 314.989 291.998 314.881 296.087C314.881 297.27 314.774 298.454 314.667 299.637C314.774 298.884 315.096 296.409 314.559 300.067C314.237 302.434 313.914 304.694 313.484 307.061C313.055 309.32 312.517 311.687 311.98 313.946C311.765 314.807 311.443 315.668 311.335 316.528C310.69 319.541 312.41 313.516 311.442 316.205C309.938 320.294 308.541 324.274 306.714 328.148C305.962 329.869 305.209 331.59 304.242 333.204C304.565 332.666 306.606 329.224 304.565 332.559C304.027 333.419 303.49 334.388 302.845 335.356C301.985 336.647 296.827 346.007 295.43 345.9C295.43 345.9 298.116 342.779 296.397 344.716C295.645 345.469 295 346.33 294.248 347.083C292.958 348.482 291.668 349.88 290.379 351.171C288.874 352.677 287.262 354.184 285.758 355.582C285.113 356.12 284.575 356.658 283.931 357.196C282.211 358.81 286.617 355.152 283.608 357.519C280.384 359.886 277.16 362.253 273.721 364.405C272.109 365.373 270.497 366.341 268.885 367.202C268.24 367.525 265.661 368.708 268.885 367.202C267.596 367.74 266.413 368.385 265.124 368.923C261.255 370.645 257.171 372.151 253.087 373.334C251.905 373.657 250.723 373.98 249.541 374.303C246.639 375.056 251.475 373.872 248.574 374.625C246.209 375.163 243.738 375.594 241.373 375.916C224.178 378.391 206.339 376.562 191.078 369.891C183.555 366.664 176.355 362.038 170.014 356.873C168.51 355.69 167.113 354.506 165.716 353.215C164.963 352.462 164.104 351.817 163.351 351.064C164.963 352.57 163.029 350.741 162.814 350.526C159.912 347.298 157.118 344.178 154.646 340.628C152.497 337.615 150.455 334.495 148.628 331.16C148.413 330.73 145.727 325.458 146.801 327.825C145.942 325.888 145.082 323.952 144.33 321.908C140.998 313.193 139.601 306.523 139.171 298.238C139.064 296.087 138.956 293.827 139.064 291.676C139.064 290.385 139.171 289.201 139.171 287.91C139.171 287.48 139.386 284.36 139.171 287.049C139.601 282.1 140.461 277.044 141.535 272.202C141.965 270.051 142.718 267.899 143.147 265.747C143.792 262.627 142.288 268.329 143.255 265.317C143.577 264.456 143.792 263.488 144.115 262.627C145.727 257.893 147.661 253.159 149.81 248.641C150.885 246.381 151.96 244.122 153.142 241.863C151.315 245.521 153.894 240.464 154.646 239.388C157.226 235.085 159.912 230.889 162.707 226.693C165.393 222.82 168.188 219.054 171.089 215.289C171.626 214.536 172.271 213.782 172.809 213.029C173.131 212.599 175.603 209.479 173.991 211.523C172.379 213.567 174.851 210.447 175.28 210.017C176.248 208.833 177.322 207.65 178.397 206.466C184.415 199.581 190.541 192.695 197.096 186.24C198.816 184.626 200.535 183.012 202.255 181.399C202.47 181.183 204.619 179.354 202.9 180.753C201.073 182.367 203.867 180 204.297 179.677C205.909 178.494 207.628 177.31 209.24 176.234C210.208 175.589 211.175 175.051 212.142 174.513C209.778 175.804 211.927 174.621 213.109 174.19C214.936 173.437 216.763 172.792 218.59 172.361C215.903 173.007 218.698 172.469 219.127 172.469C220.202 172.469 221.384 172.254 222.459 172.254C222.351 172.254 225.038 172.361 223.749 172.254C222.244 172.146 225.683 172.577 225.898 172.684C228.37 173.114 230.949 173.868 233.313 174.836C232.883 174.621 231.916 174.19 233.528 175.051C234.603 175.589 235.57 176.127 236.537 176.772C238.257 177.848 239.976 178.924 241.588 180.215C243.523 181.614 245.242 183.12 247.069 184.626C249.111 186.455 249.218 186.563 250.401 187.854C256.526 194.417 262.115 201.41 266.736 209.049C271.572 216.902 273.936 221.851 276.73 231.104C277.912 234.87 278.88 238.743 279.524 242.723C278.987 239.926 279.847 246.166 279.954 246.704C280.169 248.963 280.277 251.223 280.277 253.482C280.277 254.666 280.277 255.741 280.277 256.925C280.277 257.57 280.062 260.475 280.384 257.248C280.169 259.292 279.954 261.228 279.524 263.273C279.202 265.424 278.557 267.468 278.127 269.62C278.02 270.266 277.16 273.386 278.127 269.943C277.697 271.449 277.16 272.848 276.623 274.246C275.011 278.55 273.076 282.746 271.034 286.834C270.927 287.157 269.422 289.847 270.605 287.695C271.894 285.328 269.96 288.771 269.637 289.309C268.348 291.46 267.058 293.612 265.769 295.656C260.61 303.725 254.807 311.364 248.896 319.003C248.036 320.079 246.209 321.262 249.111 318.68C248.466 319.218 247.821 319.971 247.284 320.509C245.565 322.661 249.756 319.325 247.284 320.401C246.317 320.832 245.35 321.585 244.382 322.123C242.555 323.199 244.597 322.015 244.92 321.908C243.738 322.446 242.663 322.983 241.481 323.521C238.579 324.92 235.677 326.319 232.776 327.717C223.426 332.236 214.184 336.97 204.619 341.058C203.974 341.381 199.353 342.995 201.503 342.457C199.138 342.995 196.667 342.995 194.195 342.995C192.153 342.995 192.583 342.995 190.111 342.779C187.532 342.564 184.953 342.242 182.481 341.919C173.776 340.735 167.005 339.229 160.772 334.926C160.235 334.603 156.151 330.837 157.441 332.344C156.151 330.945 155.076 329.439 154.002 327.825C153.464 326.964 152.82 325.996 152.39 325.028C151.53 323.414 152.282 324.812 152.39 325.028C151.422 322.768 150.67 320.401 150.133 318.034C150.025 317.604 149.381 314.269 149.703 316.205C150.025 317.927 149.596 315.237 149.596 315.13C149.381 312.87 149.273 310.503 149.273 308.136C149.273 306.845 149.273 305.447 149.381 304.156C149.381 304.586 149.166 306.092 149.488 303.94C149.81 300.928 150.348 298.023 150.885 295.011C151.745 290.385 152.927 285.866 154.109 281.347C154.324 280.594 156.259 273.493 154.969 277.474C155.291 276.291 155.829 275.215 156.151 274.139C156.903 271.987 157.011 272.848 155.936 274.246C158.408 270.911 156.473 273.493 155.829 274.031C156.688 273.063 157.548 272.202 158.408 271.342C160.02 269.728 161.739 268.006 163.351 266.393C167.22 262.519 171.089 258.754 175.065 254.881C178.719 251.33 182.373 247.672 186.027 244.122C187.639 242.508 189.251 240.894 190.971 239.281C191.83 238.42 192.798 237.559 193.657 236.698C195.807 234.547 190.111 238.85 194.732 236.053C194.84 235.945 197.311 234.547 195.699 235.407C193.872 236.376 197.204 234.762 197.634 234.654C199.568 233.901 201.503 233.148 203.545 232.503C208.596 230.781 213.539 229.06 218.698 227.446C237.934 221.314 255.881 216.795 276.623 216.795C285.328 216.795 294.355 218.301 303.275 220.883C300.481 218.193 297.687 215.396 294.892 212.707C297.579 219.054 300.158 225.402 302.845 231.749C304.135 225.402 305.424 219.054 306.714 212.707C305.102 214.966 303.49 217.225 301.878 219.485C301.018 220.56 300.158 221.636 299.299 222.712C297.257 225.402 302.738 218.839 299.084 222.927C295.43 227.016 291.668 231.104 287.585 234.87C285.543 236.806 283.501 238.527 281.351 240.356C277.375 243.907 283.501 238.743 280.922 240.787C279.847 241.648 278.772 242.508 277.59 243.369C273.184 246.704 268.563 249.824 263.834 252.729C261.47 254.235 259.106 255.634 256.634 256.925C255.452 257.57 254.162 258.216 252.98 258.861C250.186 260.475 256.849 257.032 252.12 259.292C247.069 261.659 242.018 263.918 236.86 265.855C231.701 267.791 226.435 269.513 221.062 271.019C215.151 272.633 212.679 273.278 205.586 274.354C181.836 278.12 158.085 275.753 139.279 262.197C134.12 258.431 132.508 257.032 128.854 252.406C125.308 247.995 122.943 243.692 121.546 240.464C120.579 237.99 119.719 235.407 118.967 232.718C118.645 231.427 118.322 230.028 118 228.737C117.892 227.984 117.355 224.541 117.677 227.446C116.925 221.959 116.925 216.472 117.14 210.878C117.355 205.498 116.495 214.32 117.355 208.941C117.57 207.865 117.677 206.682 117.785 205.606C118.215 202.809 118.752 200.011 119.397 197.214C119.612 196.138 119.934 194.955 120.257 193.879C120.472 193.233 122.191 187.854 120.687 192.265C121.546 189.575 122.514 186.886 123.588 184.304C124.663 181.721 125.738 179.139 127.027 176.557C127.672 175.266 128.317 174.083 128.962 172.792C130.466 169.672 126.382 177.203 129.177 172.361C132.078 167.305 135.195 162.463 138.526 157.729C139.601 156.331 140.676 154.932 141.643 153.534C142.18 152.78 144.33 150.414 141.428 153.749C143.362 151.597 145.189 149.338 147.231 147.294C149.166 145.249 151.315 143.205 153.357 141.161C154.217 140.408 155.076 139.655 155.936 138.794C156.796 138.041 157.656 137.288 158.515 136.535C156.903 137.826 156.688 138.041 157.871 137.073C162.277 133.845 166.683 130.617 171.412 127.82C172.701 127.067 173.991 126.314 175.388 125.668C178.397 124.055 171.519 127.282 176.785 125.023C179.794 123.732 182.911 122.333 186.027 121.257C196.774 117.384 206.124 115.555 218.912 115.663C221.922 115.663 222.674 115.663 224.716 115.878C227.725 116.201 230.734 116.631 233.636 117.169C240.514 118.568 247.284 120.719 253.84 123.194C256.096 124.055 258.353 124.915 260.61 125.884C257.923 124.7 262.652 126.852 262.652 126.852C263.619 127.282 264.586 127.82 265.446 128.251C270.39 130.725 275.118 133.63 279.632 136.858C281.566 138.256 283.393 139.655 285.113 141.161C285.22 141.269 288.874 144.711 286.725 142.56C287.477 143.313 288.122 144.066 288.767 144.819C290.379 146.648 291.991 148.692 293.388 150.736C293.925 151.597 294.463 152.35 295 153.211C295.537 154.072 295.967 154.932 296.397 155.793C295.752 154.502 295.752 154.394 296.182 155.47C297.042 157.622 297.579 159.774 298.331 161.925C299.728 166.121 298.439 159.128 298.761 163.862C298.869 164.938 298.976 166.121 298.976 167.197C298.976 167.09 298.654 172.361 298.976 169.779C299.299 167.09 298.439 172.469 298.439 172.361C298.224 173.437 297.902 174.513 297.687 175.589C298.761 171.178 297.149 176.772 296.719 177.741C296.182 179.032 295.645 180.43 294.892 181.614C297.364 177.633 295.537 180.43 295 181.183C294.033 182.582 293.065 183.981 292.098 185.379C291.238 186.67 290.916 188.284 292.421 185.057C291.561 187.101 287.907 189.575 286.295 191.082C288.982 188.715 286.725 190.759 286.08 191.189C284.361 192.373 282.641 193.556 280.922 194.632C279.632 195.385 278.342 196.138 277.053 196.891C273.829 198.72 275.871 197.429 276.515 197.106C273.829 198.397 271.035 199.581 268.24 200.549C265.446 201.625 262.545 202.486 259.643 203.346C258.461 203.669 257.279 203.992 256.204 204.315C254.162 204.853 253.84 204.853 255.237 204.637C254.377 204.853 253.517 205.068 252.55 205.175C240.406 207.65 228.8 209.049 217.3 206.144C208.381 203.884 201.18 199.043 196.129 190.651C194.732 188.392 197.096 193.879 195.592 189.575C195.269 188.607 194.947 187.639 194.625 186.67C193.228 182.905 194.302 189.253 194.302 184.841C194.302 183.658 194.195 182.582 194.302 181.399C194.195 184.841 194.625 181.183 194.625 180.323C194.84 177.418 192.905 184.196 194.84 179.57C195.269 178.494 195.807 177.526 196.129 176.45C197.204 174.298 197.096 174.405 195.914 176.772C196.344 176.019 196.774 175.266 197.311 174.513C198.708 172.254 200.32 170.102 202.04 168.058C198.816 172.039 202.685 167.52 203.222 166.982C203.974 166.121 204.834 165.261 205.694 164.4C210.315 159.666 215.151 155.255 220.202 151.059C221.384 149.983 222.674 149.015 223.856 148.047C221.277 150.091 223.856 148.047 224.286 147.724C226.865 145.787 229.337 143.851 231.916 142.022C237.29 138.149 242.878 134.383 248.574 130.94C251.045 129.434 253.41 128.035 255.882 126.637C257.494 125.668 259.213 124.808 260.932 123.947C260.18 124.377 258.353 125.131 261.685 123.624C267.703 120.827 273.829 118.245 280.062 116.201C290.379 112.758 301.663 110.714 313.162 111.467C318.535 111.79 321.437 112.112 325.413 115.555C328.637 118.46 333.366 123.839 336.805 128.143C344.543 137.611 351.313 147.831 356.794 158.805C361.415 167.843 366.036 180.968 369.045 192.265C372.377 204.96 374.204 215.396 375.601 227.446C378.61 253.912 378.718 280.702 378.825 307.383C378.825 308.782 378.825 310.073 378.825 311.472C378.825 317.496 379.255 310.396 378.718 313.731C378.503 315.022 376.998 318.68 378.503 315.022C378.073 316.098 377.643 317.174 377.106 318.25C373.989 324.92 370.228 331.375 366.789 337.83C363.779 343.425 360.878 349.02 357.869 354.614C356.257 357.734 354.645 360.854 352.925 363.974C352.603 364.62 352.28 365.265 351.958 365.803C352.71 363.651 354.107 362.038 356.364 361.069C360.448 358.38 361.2 357.519 358.406 358.702C360.448 358.272 360.233 358.272 357.761 358.81C344.22 361.5 330.572 364.405 317.031 367.202C311.013 368.385 304.779 369.891 298.546 369.354C292.528 368.816 285.113 366.987 278.665 365.588C264.801 362.683 250.83 359.778 236.967 356.873C224.608 354.291 210.422 351.924 199.568 346.975C187.317 341.381 175.71 334.065 163.996 327.502C151.637 320.617 139.386 313.731 127.027 306.845C116.28 300.82 103.492 295.441 96.3988 286.296C87.8013 275.322 80.0636 263.595 71.896 252.299C68.1347 247.134 64.3733 241.863 60.7194 236.698C58.6775 233.794 56.5281 230.889 54.4862 227.984C53.519 226.585 52.4443 225.187 51.4771 223.788C50.9398 222.927 48.7904 220.776 49.9726 222.712C49.1128 221.314 50.295 219.054 50.6174 216.257C51.0472 213.137 51.4771 210.017 51.907 206.897C52.8742 199.258 53.8414 191.619 54.9161 183.981C55.0236 183.012 55.5609 181.399 55.4534 180.43C54.7011 182.152 53.9489 183.873 53.3041 185.595C51.5846 187.639 51.3696 188.069 52.4443 186.993C54.5937 184.626 48.6829 189.898 52.8742 186.67C53.7339 186.025 54.5937 185.272 55.4534 184.626C60.2895 180.968 65.3405 177.526 70.499 174.298C72.6483 173.007 74.7977 171.716 76.947 170.532C78.1292 169.887 79.4188 169.241 80.601 168.488C83.7175 166.767 81.3532 168.058 80.7084 168.381C86.0818 165.691 91.6702 163.216 97.366 160.957C118.645 152.673 135.84 149.122 159.375 148.262C164.319 148.047 169.37 148.047 174.313 148.262C174.206 148.262 179.687 148.585 176.785 148.369C177.86 148.477 179.042 148.585 180.116 148.585C183.448 148.907 186.672 149.23 190.004 149.66C200.965 151.167 211.82 153.641 222.244 157.084C233.098 160.634 241.803 165.261 248.466 173.222C251.905 177.418 255.452 181.721 258.353 186.348C259.643 188.392 258.031 183.55 258.998 187.746C258.461 185.702 259.106 188.284 259.213 188.715C259.32 190.328 259.213 192.05 259.213 193.664C259.428 190.436 259.106 193.448 258.891 194.955C258.676 195.923 258.461 196.891 258.246 197.967C259.213 193.126 258.353 197.752 257.923 198.828C257.601 199.796 257.171 200.764 256.741 201.625C256.526 202.163 253.947 205.929 255.989 203.239C258.031 200.442 255.129 204.422 254.914 204.745C254.377 205.606 253.732 206.466 253.087 207.22C250.186 211.523 256.311 204.1 252.657 207.758C251.583 208.833 250.508 210.017 249.433 211.093C248.681 211.846 247.929 212.491 247.069 213.244C250.723 209.909 246.962 213.244 246.209 213.89C244.275 215.289 242.233 216.365 240.299 217.656C237.827 219.269 244.167 216.042 239.761 217.978C238.794 218.409 237.827 218.839 236.86 219.162C235.248 219.807 233.528 220.453 231.916 220.883C231.486 220.991 226.758 222.282 229.014 221.744C216.763 224.541 205.801 223.896 194.087 221.314C188.284 220.022 182.481 218.301 176.892 216.257C173.024 214.751 169.155 213.029 163.889 210.124C159.483 207.65 155.291 204.96 151.315 202.055C149.381 200.657 147.554 199.151 145.727 197.644C144.545 196.676 143.362 195.6 142.18 194.524C141.75 194.202 138.634 191.081 140.568 193.018C137.129 189.468 133.905 185.702 131.004 181.829C129.606 180 128.317 178.063 127.135 176.127C126.275 174.836 125.523 173.545 124.77 172.146C124.448 171.608 122.514 167.735 123.803 170.425C121.761 166.014 120.149 161.495 118.967 156.761C118.752 155.793 117.57 149.445 118 152.888C117.463 149.23 117.248 145.572 117.248 142.022C117.248 137.288 117.785 132.984 119.397 126.422C119.719 124.808 120.149 123.194 120.579 121.688C121.654 117.815 121.116 120.182 120.794 121.042C122.084 117.277 123.481 113.619 124.985 109.961C126.167 107.163 127.457 104.366 128.854 101.569C129.391 100.493 129.929 99.4172 130.466 98.4489C128.424 102.537 130.251 98.8793 130.789 97.911C133.905 92.5316 137.237 87.2598 140.891 82.3108C142.61 79.9439 144.437 77.577 146.264 75.2101C143.362 78.9756 148.091 73.1659 149.058 72.09C153.249 67.4638 157.548 63.0527 162.169 58.9644C163.029 58.2113 163.889 57.3506 164.856 56.5975C165.286 56.2747 169.8 52.6168 166.253 55.3064C168.295 53.6926 170.444 52.0788 172.594 50.5726C174.743 49.0664 177 47.5602 179.364 46.2691C179.579 46.1615 184.738 43.3643 181.406 45.0856C183.018 44.3325 184.63 43.5794 186.242 42.9339C188.929 41.858 191.723 40.7822 194.517 40.2442C193.657 40.4594 192.045 40.567 195.269 40.2442C196.667 40.029 198.064 39.9215 199.461 39.8139C203.115 39.5987 209.24 40.7822 211.712 42.1808C213.861 43.4718 215.796 44.8705 217.838 46.3767C218.16 46.5919 220.095 48.4208 218.268 46.5919C219.127 47.4526 219.987 48.4209 220.739 49.3891C224.178 53.4775 226.973 58.2113 229.337 63.0527C228.262 60.7934 229.337 63.2679 229.552 63.5906C230.089 65.0969 230.734 66.4955 231.379 68.0017C232.239 70.1535 233.098 72.4128 233.851 74.5646C236.107 80.9122 238.149 87.3674 240.084 93.8227C243.738 105.765 247.606 119.859 249.111 131.155C249.971 137.611 250.508 144.066 250.723 150.521C250.83 153.641 250.83 156.761 250.723 159.881C250.616 161.925 250.616 164.077 250.401 166.121C250.401 166.552 249.971 171.823 250.186 169.672C248.896 183.55 246.317 197.322 243.738 210.985C242.555 217.01 241.481 223.035 239.976 228.952C239.116 232.072 241.911 225.079 239.439 230.028C238.902 231.212 238.364 232.395 237.827 233.471C239.976 229.167 236.967 234.654 236.645 235.192C235.57 236.914 234.495 238.527 233.421 240.249C225.683 252.191 217.945 264.241 210.208 276.183C206.661 281.778 203.115 287.372 199.461 292.859C198.601 294.15 197.849 295.441 196.881 296.517C200.75 291.891 194.947 297.7 197.419 295.764C199.676 294.042 194.84 297.27 194.947 297.27C193.335 298.238 191.723 298.991 190.218 299.852C177.967 306.307 165.716 312.763 153.572 319.218C150.563 320.832 147.446 322.446 144.437 324.059C143.255 324.705 141.965 325.35 140.783 325.996C135.302 328.901 142.825 323.844 138.634 327.072C138.419 327.287 135.41 328.255 138.096 327.502C136.269 328.04 136.484 327.717 135.195 327.717C131.433 327.502 127.672 326.534 123.911 325.888C110.262 323.629 96.5062 321.477 82.8578 319.218C76.3022 318.142 73.9379 317.604 69.1019 313.408C64.0509 308.997 59.4297 304.156 54.5937 299.529C49.4352 294.58 44.3842 289.631 39.2257 284.79C38.2585 283.822 37.0764 282.853 36.1092 281.885C37.8287 283.714 35.6793 280.917 35.2494 280.594C32.8851 278.873 37.0764 281.993 35.4644 281.993C35.3569 281.993 35.2494 276.829 35.2494 276.721C35.0345 270.158 34.8195 263.488 34.7121 256.925C34.7121 255.957 34.927 253.912 34.6046 253.159C35.5718 255.634 32.1328 258.431 31.488 260.583C31.2731 260.906 30.9507 261.228 30.7358 261.551C31.488 260.798 32.1328 260.045 32.8851 259.292C33.5299 258.646 37.5062 255.634 33.6374 258.431C41.6975 252.621 47.5008 250.147 56.8505 248.856C68.2421 247.35 75.0126 247.995 86.4042 251.223C106.931 257.14 125.953 271.772 142.288 287.264C141.106 280.379 140.031 273.386 138.849 266.5C141.213 261.874 139.601 264.886 138.849 266.07C137.344 268.652 142.503 262.304 139.064 265.639C137.989 266.715 137.667 268.114 139.816 265.209C139.171 266.07 137.667 266.715 136.807 267.253C135.84 267.791 132.938 269.19 136.484 267.576C135.517 268.006 134.657 268.437 133.69 268.759C131.326 269.728 128.854 270.481 126.382 271.019C129.606 270.266 126.275 270.911 125.415 271.126C124.126 271.342 122.943 271.449 121.654 271.664C119.289 271.88 116.818 272.095 114.453 272.095C108.65 272.202 107.038 271.987 100.912 270.804C90.5955 268.759 82.9653 265.639 75.0126 257.893C76.8396 259.722 74.5827 257.248 74.1529 256.817C73.2931 255.849 72.5409 254.773 71.7886 253.805C70.3915 251.868 69.2094 249.932 68.1347 247.888C66.9525 245.413 69.1019 251.115 67.7048 246.704C67.3824 245.736 66.9525 244.768 66.7376 243.799C66.4152 242.831 66.2002 241.863 65.8778 240.787C64.8032 237.236 65.7704 242.616 65.5554 239.173C65.448 237.882 65.3405 236.698 65.3405 235.407C65.3405 234.224 65.9853 231.212 65.3405 234.977C65.5554 234.009 65.6629 233.041 65.8778 231.965C66.7376 227.338 64.5882 234.224 65.8778 231.857C66.5226 230.674 67.2749 227.231 65.7704 231.427C66.0928 230.566 67.06 229.275 67.5973 228.522C68.2421 227.554 68.8869 226.693 69.6392 225.832C66.5226 229.813 69.8541 225.832 70.6064 224.971C72.6483 222.927 74.6902 220.991 76.8396 219.054C77.6993 218.301 78.6665 217.548 79.5263 216.795C76.5172 219.377 79.5263 216.795 80.2786 216.257C84.6848 212.922 89.3059 209.694 94.0345 206.897C96.5062 205.391 99.0855 203.992 101.665 202.593C98.7631 204.1 105.211 200.98 106.071 200.549C111.122 198.29 116.388 196.246 121.654 194.632C127.565 192.803 130.789 191.942 135.195 191.082C140.676 190.006 146.157 189.253 151.745 188.822C157.226 188.392 162.814 188.284 168.402 188.499C171.519 188.607 165.071 187.746 169.8 188.607C170.874 188.822 171.841 188.93 172.916 189.145C173.883 189.36 174.958 189.575 175.925 189.898C173.346 189.037 176.892 190.544 177.43 190.974C174.743 188.822 178.934 191.727 177.322 190.974C176.785 190.759 177.322 193.664 177.215 190.866C177.43 194.309 177.107 191.835 177.322 190.974C177.107 192.373 176.785 193.664 176.463 195.062C176.14 196.138 175.065 199.688 176.355 195.6C176.033 196.676 175.71 197.644 175.28 198.72C174.313 201.302 173.346 203.777 172.164 206.251C171.626 207.435 170.982 208.726 170.444 209.909C169.047 212.922 173.131 205.498 170.444 210.017C169.155 212.061 167.973 214.213 166.575 216.257C165.178 218.301 163.781 220.238 162.277 222.174C159.805 225.402 162.492 222.174 162.707 221.636C161.954 222.927 160.45 224.111 159.483 225.294C157.656 227.231 155.721 229.167 153.679 230.996C152.927 231.749 152.067 232.395 151.208 233.148C154.432 230.351 151.637 232.718 150.778 233.363C146.694 236.483 142.395 239.281 137.774 241.648C140.568 240.249 137.022 241.97 136.377 242.293C134.98 242.939 133.583 243.476 132.186 244.014C129.606 244.983 127.027 245.843 124.34 246.597C123.803 246.704 120.149 247.565 122.406 247.134C121.224 247.35 120.042 247.565 118.86 247.78C115.851 248.21 112.841 248.533 109.832 248.641C108.328 248.641 106.823 248.748 105.319 248.641C102.202 248.533 108.65 249.286 103.169 248.425C100.483 247.995 97.9033 247.565 95.2166 246.919C92.7449 246.274 90.2731 245.413 87.8013 244.445C90.2731 245.521 88.0163 244.552 87.5864 244.23C86.2968 243.476 85.0072 242.939 83.825 242.185C81.7831 241.002 79.8487 239.603 77.9143 238.097C77.162 237.559 76.4097 236.914 75.6574 236.268C75.7649 236.376 72.3259 233.256 73.9379 234.762C75.55 236.268 72.3259 232.933 72.4334 233.041C71.7886 232.287 71.1438 231.642 70.6064 230.889C69.1019 229.06 67.7048 227.123 66.3077 225.079C65.0181 223.035 63.8359 220.991 62.6538 218.839C61.1492 216.149 62.2239 218.086 62.5463 218.624C62.009 217.548 61.5791 216.365 61.0418 215.289C59.3223 210.985 57.9252 206.466 56.8505 201.948C56.5281 200.549 56.2057 199.043 55.9908 197.644C56.5281 200.657 55.9908 197.322 55.8833 196.138C55.6684 193.664 55.4534 191.189 55.4534 188.715C55.4534 187.746 55.4534 186.778 55.4534 185.81C55.4534 184.088 55.6684 181.506 55.346 184.734C55.6684 181.614 56.0982 178.494 56.8505 175.481C57.0654 174.405 57.3879 173.33 57.7103 172.254C56.4206 176.665 58.1401 171.608 58.4625 170.963C60.0746 166.874 58.1401 171.285 58.1401 171.501C58.1401 169.994 61.2567 167.197 58.57 170.64C61.5791 166.767 56.5281 172.039 58.6775 170.64C59.7522 169.887 55.4534 171.823 59.3223 170.532C61.9015 169.672 55.346 171.178 59.6447 170.64C62.7613 170.21 57.9252 169.779 60.8268 170.64C61.6866 170.855 62.5463 171.07 63.4061 171.285C60.2895 170.21 63.4061 171.608 64.1583 172.146C61.3642 169.994 64.0509 172.684 63.8359 171.716C63.5135 170.748 63.621 171.178 64.1583 172.792C64.0509 171.285 64.0509 171.07 64.0509 172.361C64.1583 173.437 63.5135 176.665 64.1583 173.33C63.8359 175.051 63.5135 176.665 62.9762 178.386C64.0509 174.728 63.1911 177.633 62.8687 178.279C62.1165 180 61.4716 181.937 60.8268 183.658C55.2385 197.752 49.1128 211.523 42.4498 225.079C39.0108 232.072 39.6556 243.261 47.7157 246.597C55.7758 249.932 65.7704 244.014 69.8541 236.914C78.0217 222.712 86.1893 208.511 94.3569 194.309C97.6884 188.607 100.375 181.937 98.2257 175.266C96.3988 169.456 91.5627 166.552 85.652 166.767C72.8633 167.305 61.3642 176.45 54.9161 186.993C47.7157 198.935 45.8888 211.953 47.1784 225.617C47.7157 230.889 48.3605 236.161 48.468 241.432C48.468 243.907 48.468 246.489 48.2531 248.963C48.3605 247.027 48.2531 248.856 48.1456 249.824C47.9307 251.115 47.8232 252.299 47.6083 253.59C47.1784 256.064 46.641 258.539 46.1037 260.906C45.9962 261.336 44.5991 266.07 45.3514 263.81C45.9962 261.874 44.7066 265.424 44.5991 265.747C43.7394 268.114 42.7722 270.373 41.6975 272.74C41.1602 273.924 40.6228 275 40.0855 276.075C38.6884 279.195 42.5573 271.879 39.5481 276.936C49.3277 277.689 59.1073 278.335 68.9944 279.088C69.2093 248.21 68.5645 217.225 69.7467 186.455C69.8542 183.443 69.8541 182.259 70.6064 178.171C70.7139 177.633 71.896 172.469 71.2512 175.051C70.6064 177.418 71.896 173.437 72.0035 173.007C72.3259 172.254 72.6483 171.608 72.9707 170.963C73.723 169.564 73.4006 169.994 72.111 172.469C72.111 171.501 73.6155 169.994 74.1529 169.241C76.4097 165.906 75.2276 169.134 73.9379 169.349C74.3678 169.241 76.7321 166.444 77.0545 166.121C79.6338 163.432 75.1201 167.305 77.0545 166.014C78.1292 165.261 79.0964 164.507 80.1711 163.862C81.5682 163.001 84.0399 161.818 81.1383 163.109C82.5354 162.463 83.825 161.925 85.3296 161.387C85.7594 161.28 89.6283 160.096 87.4789 160.634C85.3296 161.172 89.1984 160.312 89.7358 160.312C91.2403 160.096 92.6374 160.096 94.1419 159.989C97.4735 159.881 92.4225 159.666 95.9689 160.204C105.963 161.495 115.421 153.964 118.967 144.819C121.009 136.858 121.654 122.871 111.229 121.473Z" fill="#F4F5F8"/>
<path d="M53.6266 109.315C93.7122 108.67 133.798 108.132 173.776 107.486C193.658 107.163 213.539 106.841 233.313 106.625C238.257 106.518 243.2 106.518 248.251 106.41C250.723 106.41 253.195 106.303 255.667 106.303C256.419 106.303 257.171 106.303 257.923 106.303C255.237 106.088 254.592 106.088 255.989 106.195C257.171 106.518 258.783 106.733 259.965 106.948C263.297 107.486 256.526 105.119 260.503 107.271C264.479 109.423 258.676 105.334 261.255 108.132C262.33 109.853 262.33 109.745 261.362 107.916C262.007 109.961 262.007 109.638 261.148 106.841C261.9 103.075 262.652 99.2019 263.404 95.4364C264.479 92.4239 266.951 89.6267 269.53 87.7977C265.446 90.8101 273.936 85.9687 269.423 87.9053C265.339 89.6267 273.399 87.7977 268.993 87.9053C267.596 87.9053 266.199 88.1204 264.801 88.228C257.064 88.5508 249.326 88.3356 241.588 88.6584C224.716 89.3039 207.843 90.8101 190.971 92.8543C174.098 94.8984 157.226 97.4805 140.461 100.278C132.723 101.569 125.093 102.967 117.355 104.366C110.155 105.657 102.739 106.733 95.8615 109.423C77.6994 116.631 65.2331 132.231 60.2896 150.844C57.8178 159.881 57.7103 170.532 62.7613 178.709C67.4899 186.455 75.1202 188.822 83.6102 189.252C117.355 191.081 151.315 191.297 185.06 191.512C202.148 191.619 219.235 191.727 236.322 191.619C252.872 191.512 269.637 190.436 286.188 191.404C282.964 191.189 289.304 191.727 289.197 191.727C290.809 191.942 292.421 192.157 294.033 192.48C295.645 192.803 297.257 193.126 298.869 193.556C299.944 193.879 303.597 195.6 304.565 195.385C304.027 195.17 303.49 194.955 303.06 194.739C298.546 190.328 297.687 185.057 300.588 178.709C302.2 174.836 305.854 169.026 310.368 168.488C308.863 168.703 306.929 169.779 305.424 170.209C309.831 169.026 302.953 170.317 301.985 170.425C286.08 171.931 269.852 172.254 253.84 172.469C219.772 172.899 185.705 171.716 151.637 172.576C135.732 173.007 118.86 172.899 103.169 175.804C91.9927 177.848 82.5355 184.303 76.3023 193.879C69.5318 204.315 65.3406 220.668 73.2932 231.749C78.6666 239.173 85.9745 240.894 94.5719 241.755C104.674 242.723 114.668 243.476 124.77 244.122C143.792 245.305 162.922 245.843 181.944 246.166C201.073 246.489 220.095 246.704 239.224 247.242C243.845 247.35 248.359 247.565 252.98 247.78C254.699 247.887 256.526 247.887 258.246 247.995C259.643 248.103 261.04 248.103 262.437 248.21C265.016 248.318 265.231 248.318 263.082 248.21C266.091 248.533 268.993 248.856 271.787 249.932C267.488 248.425 271.035 249.932 272.109 250.685C270.497 248.963 270.39 248.856 271.787 250.577C272.432 251.438 273.076 252.406 273.614 253.374C272.647 250.254 271.679 247.027 270.712 243.907C270.712 244.337 270.712 244.875 270.712 245.305C271.464 241.54 272.217 237.667 272.969 233.901C273.614 232.718 274.259 231.534 274.903 230.243C277.805 227.338 280.814 224.326 283.716 221.421C291.776 219.377 293.495 218.624 288.874 219.162C287.477 219.269 286.08 219.377 284.683 219.484C282.534 219.592 280.492 219.7 278.342 219.807C273.399 220.022 268.455 220.13 263.512 220.238C253.625 220.345 243.738 220.238 233.958 219.915C213.862 219.377 193.765 218.301 173.776 217.763C154.324 217.333 134.55 217.118 115.206 219.269C92.53 221.851 76.8397 238.205 71.4663 259.937C70.0692 265.747 71.2513 275.215 77.2695 278.442C100.913 291.03 129.284 291.46 155.506 290.277C182.588 289.093 209.24 284.037 235.678 277.904C248.359 274.999 260.933 271.664 273.506 268.329C276.623 267.468 279.632 266.715 282.749 265.855C284.146 265.532 285.435 265.101 286.832 264.779C286.295 264.886 292.851 263.272 289.949 263.918C287.262 264.456 292.958 263.595 292.851 263.595C291.131 263.703 291.561 262.412 293.388 263.81C289.519 260.906 291.561 262.734 292.313 263.38C294.14 264.886 294.355 265.532 292.958 263.488C292.958 263.488 295.86 267.253 294.355 265.101C292.743 262.627 295.322 267.791 295.215 267.576C296.397 264.348 297.579 261.121 298.654 257.893C298.546 252.944 300.266 249.178 303.812 246.812C303.168 247.565 301.663 248.425 300.696 249.071C298.117 250.9 295.537 252.406 292.851 254.02C291.991 254.558 289.089 255.849 293.066 254.02C291.454 254.773 289.842 255.526 288.229 256.172C283.393 258.216 278.342 259.722 273.399 261.121C272.647 261.336 269.637 261.981 273.399 261.121C272.324 261.336 271.142 261.551 270.067 261.766C266.951 262.412 263.942 262.842 260.825 263.272C209.24 270.696 156.903 264.563 105.104 264.026C99.408 263.918 93.3898 263.488 87.8014 264.348C76.8397 265.962 67.9198 272.955 61.7941 281.993C56.8506 289.416 53.6266 299.637 54.2714 308.567C55.2386 320.294 64.3734 324.167 74.153 327.502C85.9745 331.483 98.8706 332.559 111.229 333.204C123.373 333.85 135.517 333.419 147.661 332.236C174.743 329.654 201.395 323.844 228.37 320.832C241.481 319.325 254.592 318.572 267.703 319.11C268.348 319.11 272.432 319.433 269.637 319.218C271.572 319.325 273.506 319.541 275.441 319.756C277.483 319.971 279.632 320.186 281.674 320.832C281.566 320.832 283.716 321.585 283.823 321.585C281.244 320.401 280.814 320.294 282.534 321.262C282.856 321.477 283.178 321.692 283.501 321.907C286.94 323.952 280.922 320.294 283.178 321.692C283.608 322.23 283.931 322.768 284.253 323.414C283.178 321.262 283.071 321.262 283.823 323.306C285.328 315.883 286.832 308.459 288.337 301.036C290.594 298.346 290.809 298.023 288.982 299.96C287.047 301.681 287.37 301.466 289.949 299.207C289.304 299.637 288.659 300.067 288.015 300.498C286.617 301.358 287.155 301.036 289.627 299.637C289.519 300.175 284.683 301.573 284.038 301.573C284.79 301.358 285.543 301.251 286.295 301.036C285.328 301.251 284.361 301.358 283.393 301.466C274.796 302.649 265.984 302.757 257.279 302.972C237.934 303.402 218.59 302.757 199.246 302.327C179.902 301.789 160.557 301.358 141.321 302.219C131.541 302.649 121.331 302.757 111.767 305.447C99.3005 308.889 90.2732 319.218 85.3297 330.73C82.3205 337.615 81.2459 350.633 89.306 355.044C103.277 362.683 118 364.189 133.69 362.898C148.413 361.715 163.029 359.886 177.86 358.81C192.798 357.734 207.628 357.089 222.566 356.873C230.412 356.766 238.149 356.658 245.995 356.766C247.714 356.766 249.433 356.766 251.153 356.873C252.335 356.873 255.022 357.304 252.443 356.873C254.27 357.089 255.882 357.411 257.709 357.842C260.933 358.702 256.849 357.089 260.073 359.24C258.783 351.171 257.386 343.102 256.097 334.926C253.947 340.09 260.288 329.223 260.395 329.223C261.362 328.47 262.222 327.825 263.189 327.072C261.685 328.04 261.792 327.932 263.619 326.964C266.628 325.35 264.264 326.534 263.404 326.749C261.04 327.502 268.455 325.781 264.694 326.534C258.891 327.717 252.98 328.901 247.069 329.869C235.033 331.913 222.889 333.312 210.745 334.172C186.78 335.894 164.211 335.356 141.75 332.774C130.036 331.375 118.967 339.875 114.883 350.741C111.874 358.81 110.907 375.486 123.266 376.885C152.175 380.22 181.299 380.973 210.208 378.176C224.071 376.885 237.934 374.84 251.69 372.043C259.213 370.537 266.306 369.246 272.969 365.158C281.352 359.993 287.585 352.032 291.346 342.995C294.463 335.463 295.215 323.844 287.37 318.68C273.829 309.858 256.526 311.687 241.158 311.794C225.898 311.902 210.637 312.44 195.377 313.3C180.546 314.161 165.716 315.452 150.993 317.066C144.33 317.819 137.559 318.465 130.789 318.357C133.368 318.465 130.359 318.25 129.284 318.142C127.78 317.927 126.275 317.712 124.77 317.389C122.943 316.958 121.224 316.421 119.397 315.883C116.173 314.807 120.042 316.313 116.71 314.484C118 322.553 119.397 330.622 120.687 338.799C119.29 341.919 116.71 345.039 113.809 346.868C112.841 347.406 111.874 347.836 110.907 348.374C112.949 347.728 112.412 347.836 109.188 348.697C109.94 348.912 112.949 348.266 113.594 348.159C115.743 347.944 117.785 347.728 119.934 347.621C128.317 346.975 136.807 346.653 145.189 346.437C162.062 346.115 178.934 346.545 195.807 347.083C212.679 347.513 229.552 348.051 246.424 347.728C261.04 347.406 277.268 347.728 290.916 342.026C311.443 333.419 334.118 307.814 315.741 286.404C305.639 274.569 289.734 274.784 275.441 274.246C244.382 273.17 213.754 279.411 183.233 284.037C166.038 286.619 148.736 288.771 131.433 288.771C122.084 288.771 118.752 288.555 109.51 287.157C105.211 286.511 101.02 285.758 96.8287 284.682C95.1093 284.252 93.3898 283.606 91.6703 283.068C89.6284 282.315 89.4134 282.208 90.918 282.853C89.7358 282.315 88.6612 281.67 87.5865 281.132C89.6284 285.435 91.7777 289.739 93.8196 293.935C93.8196 293.182 94.2495 290.922 93.7122 293.289C93.3898 294.58 93.4972 295.979 92.9599 297.162C91.4553 300.82 88.3388 304.156 85.1147 306.307C85.4371 306.092 81.2459 309.32 80.1712 308.782C81.1384 309.32 84.3624 308.674 85.4371 308.674C87.9089 308.674 90.3807 308.674 92.8524 308.674C101.665 308.674 110.477 308.889 119.29 309.212C137.237 309.858 155.184 310.718 173.131 311.149C207.199 312.009 242.233 311.902 275.333 302.972C292.313 298.453 308.971 289.954 321.974 278.012C332.399 268.544 337.665 253.267 332.291 239.711C329.39 232.287 324.661 224.971 317.138 221.529C306.714 216.795 297.042 218.839 286.403 221.744C277.913 224.111 269.423 226.37 260.825 228.629C253.087 230.673 242.878 233.256 236.752 234.654C230.627 236.053 220.31 238.205 212.572 239.603C193.228 243.046 173.561 245.413 153.894 245.521C143.792 245.628 137.774 245.413 128.317 244.229C123.911 243.692 119.612 242.938 115.313 241.863C113.164 241.325 111.015 240.679 108.865 239.926C108.973 239.926 106.071 238.85 107.468 239.388C108.435 239.818 104.352 237.774 104.244 237.774C106.178 243.907 108.113 250.039 110.047 256.279C108.758 261.443 109.08 258.754 109.725 257.57C105.211 266.285 111.229 256.71 107.361 261.121C103.384 265.747 110.047 259.184 105.534 262.95C101.88 266.07 107.683 262.627 103.599 264.241C99.6229 265.747 105.641 263.918 106.393 263.488C105.856 263.81 101.665 264.026 104.566 264.026C105.856 264.026 107.468 263.703 108.758 263.595C121.009 262.519 133.368 262.089 145.727 262.089C170.444 261.981 195.055 263.488 219.665 264.241C232.024 264.671 244.275 264.886 256.634 264.671C271.035 264.456 288.874 266.07 299.621 254.665C307.251 246.596 312.41 234.977 309.401 223.896C307.789 217.871 301.985 211.738 296.827 208.618C286.617 202.486 273.936 203.346 262.545 202.916C237.827 201.84 213.109 201.625 188.284 201.195C163.566 200.764 140.138 200.119 116.818 197.859C113.594 197.537 110.477 197.321 107.253 196.891C106.716 196.784 105.319 196.353 104.781 196.461C103.492 196.676 108.005 198.935 105.749 196.891C106.178 197.321 108.328 200.334 106.716 197.752C108.328 200.441 108.65 202.163 108.005 206.036C107.361 209.586 104.889 213.567 102.632 215.719C95.8615 219.484 94.0346 220.775 96.9362 219.592C98.3333 219.054 97.6885 219.269 95.0018 219.915C95.1093 220.453 127.35 217.44 130.466 217.333C155.291 216.364 180.117 216.58 205.049 216.795C230.304 217.01 255.452 217.118 280.599 215.611C293.603 214.858 306.177 213.675 317.676 207.112C332.291 198.828 345.295 174.728 334.656 158.913C330.894 153.318 323.909 151.167 317.783 149.445C311.55 147.724 305.317 147.078 298.869 146.648C286.51 145.895 274.151 146.433 261.685 146.54C236.752 146.755 211.82 146.755 186.887 146.54C161.632 146.325 136.27 145.787 111.015 144.926C104.996 144.711 98.7632 145.034 92.8524 144.281C93.0674 144.281 97.581 144.711 94.5719 144.173C91.7777 143.743 95.3242 144.604 95.8615 144.819C93.3898 143.635 96.2914 145.142 96.7213 145.787C97.6885 147.186 97.581 151.489 97.796 147.939C97.581 152.458 97.796 149.66 98.0109 148.584C96.7213 153.856 97.1511 150.844 97.796 149.66C99.9453 145.572 96.8287 151.167 96.7213 151.274C97.0437 151.167 100.16 146.325 97.1511 150.413C94.7868 153.533 96.5063 151.274 97.3661 150.521C99.6229 148.369 92.4226 154.071 96.1839 151.704C98.0109 150.521 97.9034 151.704 94.357 152.458C95.3242 152.242 96.2914 151.597 97.1511 151.274C98.6557 150.736 100.805 150.521 102.202 149.66C101.88 149.876 97.2586 150.629 100.483 150.091C101.557 149.876 102.632 149.66 103.707 149.445C110.047 148.262 116.28 147.186 122.621 146.11C135.195 143.958 147.876 141.806 160.45 139.977C184.953 136.427 209.563 133.737 234.173 132.877C245.457 132.446 256.956 133.522 267.918 130.402C284.468 125.668 299.943 109.423 300.158 91.6708C300.373 78.4376 291.131 66.7106 278.88 62.8374C269.53 59.825 258.461 61.3312 248.789 61.4388C198.816 62.1919 148.843 62.945 98.7632 63.6981C86.4043 63.9133 73.938 64.0209 61.5792 64.2361C40.5154 64.8816 25.8998 109.745 53.6266 109.315Z" fill="#F4F5F8"/>
<path d="M124.233 365.373C123.803 327.394 123.373 289.416 122.943 251.438C122.729 232.61 122.514 213.782 122.299 194.954C122.191 185.702 122.084 176.449 121.976 167.305C121.976 165.26 121.976 163.109 121.976 161.064C121.976 160.419 121.976 159.666 122.084 159.02C121.869 161.495 121.869 161.818 122.084 159.773C122.514 158.052 122.406 157.944 121.976 159.666C121.439 161.28 121.439 161.28 122.084 159.558C120.257 163.001 117.033 167.305 112.627 167.52C110.047 166.874 107.361 166.229 104.781 165.691C106.931 166.659 104.137 163.324 105.749 166.551C107.79 170.64 105.641 164.077 106.608 168.488C106.716 168.918 107.576 173.76 107.146 170.209C107.361 171.823 107.361 173.329 107.468 174.943C107.79 182.797 107.576 190.759 107.79 198.612C108.328 215.504 109.402 232.395 110.8 249.286C112.197 265.424 114.024 281.67 115.958 297.7C117.033 306.092 118.107 314.484 119.182 322.983C120.149 330.084 120.794 337.292 122.836 344.178C127.242 358.81 139.601 372.043 156.044 369.999C167.328 368.6 175.925 359.025 180.009 349.127C183.555 340.52 182.803 330.622 183.018 321.477C183.878 287.264 184.308 253.052 184.415 218.731C184.523 200.226 184.415 181.614 184.308 163.109C184.2 154.179 183.985 145.249 184.2 136.427C184.2 134.49 184.308 132.554 184.415 130.51C184.523 129.219 184.523 127.928 184.63 126.637C184.523 128.143 184.523 127.82 184.845 125.561C185.168 123.624 185.382 121.688 185.812 119.751C186.027 118.46 186.35 117.169 186.672 115.878C187.747 112.112 187.209 113.296 184.953 119.428C182.481 121.903 179.902 124.485 177.43 126.959C177.86 126.744 178.182 126.529 178.612 126.421C175.71 127.497 172.916 128.573 170.014 129.649C168.617 129.219 167.22 128.788 165.931 128.466C167.435 129.541 167.543 129.541 166.146 128.466C164.641 125.668 166.898 131.155 166.898 131.155C167.435 132.984 167.65 134.383 167.865 137.826C168.51 146.11 168.725 154.502 168.94 162.893C169.37 178.494 169.477 194.201 169.37 209.801C169.262 241.432 168.725 273.063 169.8 304.693C170.014 312.117 170.444 319.648 170.874 327.072C171.412 335.141 171.412 344.285 176.248 351.171C181.514 358.702 190.756 361.822 199.568 358.702C210.208 354.937 217.838 344.07 220.095 333.204C221.707 325.458 221.599 316.958 222.137 309.104C222.566 301.358 222.996 293.612 223.319 285.758C223.964 269.512 224.178 253.267 224.393 236.913C224.608 219.592 224.716 202.27 225.146 184.949C225.361 176.127 225.576 167.305 225.898 158.375C226.005 156.223 226.113 154.179 226.113 152.027C226.22 147.401 225.361 155.793 226.113 151.166C226.328 149.875 227.725 145.895 225.79 150.521C226.65 148.369 226.435 148.692 224.931 151.597C223.964 152.888 222.889 153.964 221.492 154.824C218.59 155.9 215.796 156.976 212.894 158.052C213.324 158.052 213.754 158.052 214.076 158.16C211.497 157.514 208.81 156.869 206.231 156.331C204.834 154.932 203.867 153.211 203.222 151.382C203.33 152.78 203.33 154.179 203.437 155.578C203.545 157.729 203.652 159.773 203.652 161.925C203.867 166.874 203.867 171.823 203.974 176.772C204.082 185.917 203.974 195.062 203.867 204.315C203.545 223.035 202.792 241.647 202.362 260.367C201.933 279.088 201.933 297.7 202.792 316.42C203.652 333.742 205.909 351.494 224.501 357.949C233.851 361.177 244.597 350.095 247.499 342.564C255.129 322.876 256.419 301.789 256.634 280.917C256.849 261.766 255.559 242.508 253.41 223.465C251.045 203.561 247.714 183.658 244.06 163.969C242.233 154.286 240.299 144.604 238.364 134.921C237.934 132.877 237.397 130.832 237.075 128.681C237.182 129.649 237.075 129.004 236.86 126.852C236.86 124.592 236.752 124.054 236.752 125.453C236.537 126.206 236.215 127.067 236 127.82C236.967 125.668 236.752 126.099 235.355 129.004C234.495 130.402 233.313 131.586 232.024 132.554C229.874 133.522 229.982 133.63 232.346 132.877C229.552 133.092 226.65 133.415 223.856 133.63C222.674 133.522 221.169 129.757 221.707 132.231C221.922 132.984 222.781 134.06 223.104 134.706C223.426 135.351 225.038 138.256 224.716 137.718C226.435 141.376 227.832 145.142 229.122 149.015C230.304 152.565 231.271 156.115 232.131 159.773C232.561 161.602 232.991 163.431 233.313 165.153C233.421 165.906 234.28 170.64 234.066 168.918C236.645 185.487 237.397 202.378 237.827 219.162C238.687 254.773 236.645 290.277 236.107 325.888C236 335.463 235.14 345.469 236.645 354.937C238.579 367.417 247.499 374.948 260.18 374.733C268.348 374.625 276.193 366.126 278.987 359.133C286.832 339.552 288.122 317.496 288.122 296.624C288.122 276.613 286.08 256.71 283.823 236.913C281.566 217.333 279.095 197.859 278.02 178.171C277.483 168.38 277.268 158.59 277.698 148.8C277.805 146.11 277.912 143.42 278.127 140.731C278.127 140.085 278.235 139.332 278.235 138.686C278.02 140.623 278.127 140.731 278.342 138.902C278.45 138.041 278.665 137.18 278.88 136.319C277.912 139.117 277.805 139.547 278.557 137.503C276.945 140.623 274.796 143.313 271.572 144.711C266.521 143.42 261.577 142.237 256.526 140.946C258.138 142.667 259.428 144.496 260.718 146.433C261.04 146.971 261.255 147.401 261.577 147.939C260.933 146.755 261.04 146.971 261.792 148.8C262.222 150.413 262.759 151.92 263.189 153.533C263.619 155.578 263.619 155.685 263.404 154.071C263.512 154.932 263.619 155.685 263.727 156.546C264.694 165.26 264.694 174.19 264.909 182.905C265.231 201.195 264.801 219.484 264.479 237.774C264.157 256.064 263.727 274.354 264.157 292.644C264.372 301.789 264.586 310.933 265.446 320.078C266.306 329.438 268.563 338.799 277.16 343.963C287.692 350.31 300.051 339.659 303.812 330.192C315.096 301.681 308.326 269.728 306.821 239.926C306.069 224.971 305.639 210.124 305.424 195.17C305.317 187.746 305.317 180.215 305.424 172.791C305.424 169.564 305.424 166.444 305.639 163.216C305.424 166.767 306.069 161.28 306.069 161.064C305.854 161.602 305.639 162.14 305.532 162.678C305.962 161.495 306.392 160.419 306.929 159.343C298.009 163.969 289.197 168.488 280.277 173.114C282.641 174.405 280.599 173.007 280.707 172.899C281.566 174.19 281.781 174.405 281.244 173.329C280.922 172.469 280.922 172.361 281.244 173.222C281.459 174.083 281.781 174.943 281.996 175.804C282.104 176.019 282.641 178.709 282.319 177.203C281.996 175.481 282.749 180.323 282.856 180.861C283.071 182.259 283.286 183.658 283.393 184.949C283.823 188.069 284.253 191.189 284.576 194.309C285.973 206.359 287.047 218.516 287.692 230.673C288.874 254.988 288.444 279.303 286.402 303.51C285.65 312.978 295.86 318.68 303.92 315.345C314.237 311.149 319.503 301.573 320.362 290.922C322.619 264.563 322.942 238.205 321.33 211.846C320.577 199.043 319.288 186.132 317.568 173.437C315.956 161.172 315.526 145.572 303.49 138.579C292.421 132.231 281.244 142.99 276.838 152.35C270.175 166.444 271.464 183.012 271.464 198.182C271.572 213.459 271.894 228.737 272.539 244.014C273.184 258.861 274.151 273.816 275.333 288.663C275.871 295.333 276.408 302.004 276.3 308.782C276.3 309.212 276.086 313.838 276.193 312.117C276.3 310.396 275.871 314.914 275.763 315.345C275.441 317.281 275.118 319.11 274.581 320.939C275.333 317.604 273.936 322.553 273.721 323.306C282.641 318.68 291.453 314.161 300.373 309.535C298.869 308.459 298.654 308.459 299.943 309.642C299.084 308.351 298.976 308.136 299.514 309.212C300.051 310.288 300.051 310.073 299.406 308.567C298.976 306.63 298.976 306.738 299.406 308.889C299.084 304.909 298.869 301.035 298.654 297.055C298.224 287.91 297.902 278.765 297.902 269.62C297.794 251.33 298.224 233.04 298.546 214.751C298.869 196.461 299.084 178.171 298.546 159.881C298.009 143.42 297.364 125.238 285.758 112.327C281.781 108.024 276.408 106.195 270.712 108.562C257.601 114.264 249.004 125.453 245.994 139.332C243.845 149.015 243.953 159.666 243.845 169.564C243.63 190.866 245.887 212.168 248.359 233.363C250.723 254.235 253.41 275.107 254.27 296.086C254.699 306.522 254.592 316.958 253.947 327.394C253.732 329.654 253.732 330.084 253.84 328.685C253.732 330.084 253.517 331.375 253.41 332.666C253.087 335.248 252.765 337.938 252.335 340.52C251.905 343.102 251.368 345.577 250.831 348.051C250.186 350.31 250.186 350.526 250.723 348.589C250.293 349.772 249.863 351.063 249.326 352.247C255.559 347.083 261.9 341.811 268.133 336.647C269.745 336.647 269.423 337.4 270.497 337.83C270.175 337.4 269.96 337.077 269.637 336.647C270.282 337.185 270.497 337.938 270.497 338.799C270.067 338.691 270.39 328.147 270.39 327.179C270.39 318.034 270.605 308.889 270.82 299.744C271.249 282.853 271.894 265.962 272.217 248.963C272.861 215.504 272.969 181.506 267.273 148.477C264.586 133.092 259.858 117.814 251.69 104.366C245.027 93.2845 232.668 94.468 222.889 100.816C213.754 106.733 206.984 116.631 204.512 127.175C202.255 137.073 204.297 146.54 206.231 156.223C207.843 164.507 209.563 172.791 211.067 181.076C214.184 197.321 216.763 212.599 218.912 228.629C221.384 247.349 222.889 266.177 223.104 285.005C223.319 303.187 222.889 322.123 217.838 335.463C225.468 330.299 233.098 325.243 240.836 320.078C243.308 320.939 238.364 317.604 240.514 320.078C239.976 319.433 239.546 318.572 239.009 317.927C240.406 319.325 239.546 319.54 239.117 318.142C238.902 317.281 238.579 316.42 238.364 315.56C238.257 315.345 237.719 311.149 237.934 313.838C238.149 316.098 237.934 313.3 237.934 312.762C237.827 311.149 237.719 309.535 237.612 307.921C236.967 295.979 236.645 283.929 236.645 271.987C236.645 247.995 237.612 224.003 238.257 200.011C238.579 188.069 238.687 176.019 238.579 164.077C238.472 158.482 238.364 152.78 238.149 147.186C237.934 140.3 238.472 132.124 234.495 126.099C229.444 118.352 219.45 118.352 212.249 122.871C205.479 127.175 199.568 134.813 196.667 142.129C192.368 152.995 192.475 164.615 192.045 176.234C190.433 224.003 191.508 271.772 188.606 319.433C188.392 322.66 188.177 325.78 187.962 329.008C187.854 330.407 187.747 331.805 187.639 333.204C187.639 333.85 187.854 337.938 187.424 335.571C187.424 335.356 187.424 335.033 187.424 334.818C186.887 337.077 187.209 336.432 188.606 332.774C189.036 331.698 189.574 330.622 190.004 329.546C205.586 328.147 210.637 325.673 205.264 322.123C203.759 320.939 205.479 322.445 205.801 322.876C206.554 324.059 205.264 320.724 205.801 323.736C203.759 312.547 204.297 300.282 203.867 288.986C203.115 264.779 203.33 240.679 203.437 216.472C203.545 192.265 203.759 168.165 202.9 143.958C202.47 132.231 202.792 119.428 199.138 108.024C197.311 102.322 194.517 97.2653 189.359 93.9301C181.299 88.7659 170.337 91.7783 163.996 98.4487C153.572 109.423 151.96 125.668 150.993 140.193C150.24 151.597 150.778 163.216 150.778 174.62C150.993 198.828 150.993 223.142 150.778 247.349C150.67 271.234 150.24 295.118 149.81 319.003C149.703 325.027 149.596 331.16 149.381 337.185C149.273 339.982 149.058 342.887 149.166 345.792C149.273 349.45 149.81 342.672 149.273 345.146C148.951 346.652 149.166 346.007 149.918 343.21C154.002 339.444 158.193 335.679 162.277 331.913C162.277 331.267 163.244 331.913 163.351 332.021C162.922 331.483 161.525 330.945 160.88 330.514C160.127 329.976 159.375 329.438 158.73 328.793C160.88 330.837 159.16 329.116 158.838 328.685C158.3 327.717 157.656 326.749 157.011 325.888C155.721 323.952 157.871 328.255 157.118 325.996C156.474 324.059 155.829 322.123 155.291 320.186C154.969 319.003 154.217 314.161 154.754 318.034C154.432 315.452 154.109 312.978 153.787 310.396C152.927 304.048 152.175 297.808 151.315 291.46C149.81 279.518 148.413 267.576 147.124 255.634C144.652 231.749 142.825 207.865 142.18 183.873C141.858 172.684 142.825 161.172 140.461 150.091C137.774 137.503 127.565 124.592 113.379 130.832C100.375 136.535 91.5628 149.445 89.4134 163.324C87.6939 174.62 88.7686 186.563 88.8761 197.967C89.4134 245.843 89.9507 293.827 90.4881 341.703C90.5956 353.753 90.703 365.803 90.918 377.96C91.0254 387.213 99.7304 393.345 108.435 389.795C117.355 385.814 124.341 375.701 124.233 365.373Z" fill="#F4F5F8"/>
</g>
<defs>
<clipPath id="clip0">
<rect width="413" height="441" fill="white" transform="translate(0 0.544434)"/>
</clipPath>
</defs>
</svg>
