<svg width="34" height="34" viewBox="0 0 34 34" fill="none" xmlns="http://www.w3.org/2000/svg">
<g clip-path="url(#clip0)">
<path d="M17.359 32.3444C26.1403 32.3444 33.259 25.2258 33.259 16.4444C33.259 7.66311 26.1403 0.544434 17.359 0.544434C8.57766 0.544434 1.45898 7.66311 1.45898 16.4444C1.45898 25.2258 8.57766 32.3444 17.359 32.3444Z" fill="#A95C52"/>
<path d="M17.359 33.4445C26.4165 33.4445 33.759 26.102 33.759 17.0445C33.759 7.98706 26.4165 0.644531 17.359 0.644531C8.30151 0.644531 0.958984 7.98706 0.958984 17.0445C0.958984 26.102 8.30151 33.4445 17.359 33.4445Z" fill="#18931D"/>
<path d="M17.2591 27.4443C12.3591 27.4443 8.25908 23.4443 8.05908 18.5443L10.9591 18.4443C11.0591 21.7443 13.9591 24.6443 17.2591 24.6443C20.5591 24.6443 23.4591 21.8443 23.5591 18.4443L26.4591 18.5443C26.3591 23.3443 22.1591 27.4443 17.2591 27.4443Z" fill="black"/>
</g>
<defs>
<clipPath id="clip0">
<rect width="32.7" height="32.8" fill="white" transform="translate(0.958984 0.544434)"/>
</clipPath>
</defs>
</svg>
