<svg width="15px" height="10px" viewBox="0 0 15 10" version="1.1" xmlns="http://www.w3.org/2000/svg" xmlns:xlink="http://www.w3.org/1999/xlink">
    <g id="Design" stroke="none" stroke-width="1" fill="none" fill-rule="evenodd">
        <g id="Desktop:-default" transform="translate(-483.000000, -228.000000)" fill="#999999">
            <path d="M490,235 L490,234 L490.718057,234 C491.163817,234 491.32546,233.953587 491.488423,233.866434 C491.651386,233.77928 491.77928,233.651386 491.866434,233.488423 C491.953587,233.32546 492,233.163817 492,232.718057 L492,230.281943 C492,229.836183 491.953587,229.67454 491.866434,229.511577 C491.77928,229.348614 491.651386,229.22072 491.488423,229.133566 C491.32546,229.046413 491.163817,229 490.718057,229 L485.281943,229 C484.836183,229 484.67454,229.046413 484.511577,229.133566 C484.348614,229.22072 484.22072,229.348614 484.133566,229.511577 C484.046413,229.67454 484,229.836183 484,230.281943 L484,232.718057 C484,233.163817 484.046413,233.32546 484.133566,233.488423 C484.22072,233.651386 484.348614,233.77928 484.511577,233.866434 C484.67454,233.953587 484.836183,234 485.281943,234 L487,234 L487,235 L485.563885,235 C484.672366,235 484.34908,234.907174 484.023154,234.732867 C483.697228,234.55856 483.44144,234.302772 483.267133,233.976846 C483.092826,233.65092 483,233.327634 483,232.436115 L483,230.563885 C483,229.672366 483.092826,229.34908 483.267133,229.023154 C483.44144,228.697228 483.697228,228.44144 484.023154,228.267133 C484.34908,228.092826 484.672366,228 485.563885,228 L490.436115,228 C491.327634,228 491.65092,228.092826 491.976846,228.267133 C492.302772,228.44144 492.55856,228.697228 492.732867,229.023154 C492.907174,229.34908 493,229.672366 493,230.563885 L493,232.436115 C493,233.327634 492.907174,233.65092 492.732867,233.976846 C492.55856,234.302772 492.302772,234.55856 491.976846,234.732867 C491.65092,234.907174 491.327634,235 490.436115,235 L490,235 Z M494,231 L495.436115,231 C496.327634,231 496.65092,231.092826 496.976846,231.267133 C497.302772,231.44144 497.55856,231.697228 497.732867,232.023154 C497.907174,232.34908 498,232.672366 498,233.563885 L498,235.436115 C498,236.327634 497.907174,236.65092 497.732867,236.976846 C497.55856,237.302772 497.302772,237.55856 496.976846,237.732867 C496.65092,237.907174 496.327634,238 495.436115,238 L490.563885,238 C489.672366,238 489.34908,237.907174 489.023154,237.732867 C488.697228,237.55856 488.44144,237.302772 488.267133,236.976846 C488.092826,236.65092 488,236.327634 488,235.436115 L488,233.563885 C488,232.672366 488.092826,232.34908 488.267133,232.023154 C488.44144,231.697228 488.697228,231.44144 489.023154,231.267133 C489.34908,231.092826 489.672366,231 490.563885,231 L491,231 L491,232 L490.281943,232 C489.836183,232 489.67454,232.046413 489.511577,232.133566 C489.348614,232.22072 489.22072,232.348614 489.133566,232.511577 C489.046413,232.67454 489,232.836183 489,233.281943 L489,235.718057 C489,236.163817 489.046413,236.32546 489.133566,236.488423 C489.22072,236.651386 489.348614,236.77928 489.511577,236.866434 C489.67454,236.953587 489.836183,237 490.281943,237 L495.718057,237 C496.163817,237 496.32546,236.953587 496.488423,236.866434 C496.651386,236.77928 496.77928,236.651386 496.866434,236.488423 C496.953587,236.32546 497,236.163817 497,235.718057 L497,233.281943 C497,232.836183 496.953587,232.67454 496.866434,232.511577 C496.77928,232.348614 496.651386,232.22072 496.488423,232.133566 C496.32546,232.046413 496.163817,232 495.718057,232 L494,232 L494,231 Z" id="Combined-Shape"></path>
        </g>
    </g>
</svg>
