<svg width="24" height="13" viewBox="0 0 24 13" fill="none" xmlns="http://www.w3.org/2000/svg">
<g clip-path="url(#clip0)">
<path d="M12.067 4.57546C7.77654 4.57546 4.42458 7.92742 4.42458 12.2179H6.56983C6.56983 9.2682 8.98324 6.72071 12.067 6.72071C15.1508 6.72071 17.4302 9.13412 17.4302 12.2179H19.5754C19.7095 7.92742 16.2235 4.57546 12.067 4.57546ZM12.067 0.150879C5.36313 0.150879 0 5.51401 0 12.2179H2.14525C2.14525 6.85479 6.56983 2.43021 11.933 2.43021C17.2961 2.43021 21.7207 6.85479 21.7207 12.2179H23.8659C24 5.51401 18.6369 0.150879 12.067 0.150879Z" fill="white"/>
</g>
<defs>
<clipPath id="clip0">
<rect width="24" height="12.067" fill="white" transform="translate(0 0.150879)"/>
</clipPath>
</defs>
</svg>
