<svg width="18px" height="17px" viewBox="0 0 18 17" version="1.1" xmlns="http://www.w3.org/2000/svg" xmlns:xlink="http://www.w3.org/1999/xlink">
    <g id="Symbols" stroke="none" stroke-width="1" fill="none" fill-rule="evenodd">
        <g id="search" transform="translate(-12.000000, -11.000000)" fill="#CCCCCC" fill-rule="nonzero">
            <path d="M19,23 C21.7614237,23 24,20.7614237 24,18 C24,15.2385763 21.7614237,13 19,13 C16.2385763,13 14,15.2385763 14,18 C14,20.7614237 16.2385763,23 19,23 Z M25.0081837,21.5939701 L29.4555948,26.0413813 L28.0413813,27.4555948 L23.7383328,23.1525464 C22.4916645,24.299589 20.8276271,25 19,25 C15.1340068,25 12,21.8659932 12,18 C12,14.1340068 15.1340068,11 19,11 C22.8659932,11 26,14.1340068 26,18 C26,19.313987 25.6379573,20.5434143 25.0081837,21.5939701 Z" id="Combined-Shape"></path>
        </g>
    </g>
</svg>
