<svg width="316" height="306" viewBox="0 0 316 306" fill="none" xmlns="http://www.w3.org/2000/svg">
  <path d="M253.466 140.821C251.32 133.836 248.923 129.667 246.377 130.343L245.478 128.428C217.521 122.964 172.389 127.414 151.072 129.892C141.736 130.963 125.61 134.174 116.574 138.399C111.482 140.765 110.533 145.666 111.282 156.312C112.031 166.903 124.761 159.861 134.896 160.087C145.081 160.312 132.999 168.255 130.752 168.424C110.982 170.114 91.2623 171.804 71.4923 173.494C63.5044 174.17 55.3168 174.959 48.1277 182C45.2321 184.817 42.1867 191.239 43.3849 198.675C44.0838 203.012 45.9809 205.547 47.7782 207.181C53.7192 212.589 60.0596 212.138 66.2003 211.631C76.1851 210.786 86.17 209.941 96.2048 209.152C97.7025 209.04 99.4998 209.265 100.398 212.363C101.297 215.405 100.698 219.63 99.5497 221.546C98.4015 223.461 96.8538 223.743 95.406 223.968C88.2668 225.038 81.1276 226.109 73.9885 227.179C71.2926 227.573 68.4469 228.137 66.4998 232.136C64.5029 236.136 64.0036 244.924 66.2502 249.149C67.5982 251.684 69.3455 251.796 70.993 251.796C116.125 251.008 161.256 250.219 206.288 247.177C208.335 248.304 190.112 250.106 212.528 248.698C234.994 247.29 268.344 255.12 261.354 180.197L269.642 185.098C268.543 162.396 261.904 147.581 253.466 140.821Z" fill="#F0F0E9"/>
  <path d="M61.459 153.271C63.6058 164.199 66.2018 170.903 69.3471 170.058L70.2956 173.1C103.346 184.197 157.463 181.662 183.025 179.86C194.208 179.071 213.628 175.691 224.662 170.058C230.902 166.847 232.25 184.028 232 167.635C231.701 151.243 216.174 160.932 204.043 159.58C191.911 158.284 206.789 147.187 209.435 147.13C233.099 146.454 213.229 137.666 236.793 135.526C325.908 127.583 316.422 95.8676 315.374 84.263C314.775 77.5595 312.678 73.4472 310.631 70.7995C303.841 61.9553 296.253 62.0117 288.914 62.237C276.932 62.575 264.95 62.913 253.019 63.251C251.221 63.3073 249.075 62.744 248.176 57.8994C247.277 53.1111 248.276 46.6892 249.724 43.8162C251.221 40.9432 253.068 40.6616 254.816 40.4362C263.403 39.4786 271.94 38.5209 280.527 37.507C283.722 37.169 287.167 36.5493 289.763 30.578C292.359 24.6068 293.457 11.1433 291.061 4.38337C289.613 0.327416 287.516 -0.0105799 285.569 -0.123245C231.751 -3.16521 44.7344 32.775 44.7344 83.6434C44.7344 118.626 51.8236 142.06 61.459 153.271Z" fill="#F0F0E9"/>
  <path d="M16.76 268.473C18.9113 283.023 21.5128 291.949 24.6647 290.824L25.6153 294.874C58.7351 309.65 112.967 306.274 138.583 303.874C149.789 302.824 169.251 298.324 180.308 290.824C186.561 286.549 187.912 309.425 187.662 287.599C187.362 265.773 171.803 278.673 159.645 276.873C147.488 275.148 162.397 260.372 165.049 260.297C188.763 259.397 168.851 247.697 192.465 244.847C281.768 234.271 272.263 192.044 271.212 176.594C270.612 167.668 268.51 162.193 266.459 158.668C259.655 146.893 252.051 146.968 244.696 147.268C232.689 147.718 220.682 148.168 208.725 148.618C206.924 148.693 204.772 147.943 203.872 141.492C202.971 135.117 203.972 126.567 205.423 122.742C206.924 118.916 208.775 118.541 210.526 118.241C219.131 116.966 227.686 115.691 236.291 114.341C239.493 113.891 242.945 113.066 245.547 105.116C248.148 97.1654 249.249 79.2396 246.847 70.2392C245.397 64.839 243.295 64.389 241.344 64.239C187.412 60.1888 0 108.041 0 175.769C0 222.346 7.10424 253.547 16.76 268.473Z" fill="#F0F0E9"/>
</svg>
