<svg width="616" height="495" viewBox="0 0 616 495" fill="none" xmlns="http://www.w3.org/2000/svg">
<path d="M129.943 72.8078C210.461 68.5959 291.089 67.3924 371.717 69.1976C394.519 69.6789 417.213 70.5213 440.016 71.484C444.053 48.7396 448.199 25.9951 452.235 3.25068C367.789 13.7203 283.124 24.3104 200.206 45.009C174.784 51.3871 149.581 58.3669 124.706 66.6704C110.195 71.484 99.6119 90.1369 98.4117 105.902C97.9753 112.039 98.4117 119.62 102.121 124.675C106.813 131.053 112.159 132.738 119.469 133.099C219.408 137.912 318.692 121.546 418.522 118.176C446.78 117.214 475.038 117.454 503.187 119.38C501.005 119.259 498.714 119.019 496.532 118.898C509.842 119.861 524.68 119.62 537.227 125.036C535.263 124.073 533.19 123.11 531.227 122.148C534.391 123.712 537.009 125.638 539.628 128.165C538.1 126.48 536.464 124.795 534.936 123.11C536.9 125.397 538.427 127.804 539.737 130.571C538.755 128.405 537.773 126.119 536.791 123.953C537.445 125.397 537.991 126.961 538.427 128.405C539.409 131.775 538.427 133.941 538.646 126.961C538.646 128.405 538.755 130.331 538.864 131.775C539.409 126.119 539.518 124.554 539.082 127.082C538.536 129.849 538.973 128.165 540.5 121.907C543.01 115.89 546.719 110.956 551.738 107.225C547.592 110.354 558.721 104.337 553.702 105.902C555.12 105.541 556.539 105.18 557.957 104.698C557.302 104.819 556.539 104.939 555.884 104.939C554.247 104.819 552.502 105.059 550.865 104.939C553.047 105.059 555.338 105.3 557.521 105.42C537.882 103.856 518.243 99.8845 498.604 97.7184C477.111 95.3116 455.399 93.7471 433.797 94.7099C395.501 96.3946 356.988 105.781 321.311 121.185C299.599 130.571 278.542 142.245 258.576 155.602C247.448 163.064 237.846 180.513 238.937 195.195C239.919 208.914 247.448 218.18 260.322 218.18C338.004 217.698 415.795 217.217 493.367 222.632C491.185 222.512 488.894 222.271 486.712 222.151C510.388 223.836 534.172 226.002 557.739 228.89C561.667 206.868 565.703 184.845 569.631 162.943C559.703 167.276 549.665 171.126 539.409 174.376C534.391 176.06 529.263 177.505 524.135 178.949C523.153 179.189 522.171 179.43 521.298 179.671C520.316 179.911 516.061 180.994 519.989 180.032C523.917 179.069 519.661 180.152 518.68 180.393C517.043 180.754 515.516 181.115 513.879 181.476C493.367 186.169 472.529 189.418 451.69 192.066C409.903 197.24 367.789 200.129 326.33 207.71C301.236 212.283 276.142 218.541 252.03 227.446C237.519 232.741 227.045 250.552 225.736 266.677C225.299 272.815 225.736 280.396 229.445 285.45C234.137 291.828 239.483 293.513 246.793 293.874C335.167 298.568 423.541 302.178 511.806 308.195C509.624 308.075 507.333 307.834 505.151 307.714C528.935 309.398 552.72 311.925 576.068 317.341C577.705 296.642 579.341 275.943 580.978 255.245C577.923 257.652 574.323 259.336 571.377 261.864C571.268 261.864 577.159 258.975 574.213 260.299C573.341 260.66 572.577 261.142 571.704 261.503C569.413 262.586 567.231 263.548 564.831 264.391C561.448 265.714 557.521 266.196 554.357 267.76C554.357 267.76 559.921 266.437 556.975 267.038C556.102 267.279 555.229 267.399 554.357 267.64C552.284 268.121 550.211 268.482 548.138 268.843C531.117 271.852 513.77 273.176 496.532 274.018C460.091 275.823 423.541 274.499 387.1 272.815C313.128 269.445 239.374 268.121 165.401 271.852C144.999 272.935 124.488 274.259 104.085 275.943C83.3554 277.628 62.4075 280.757 42.7688 288.94C26.5123 295.8 10.8014 320.47 17.2385 340.326C20.7298 351.157 26.8396 361.025 36.3316 366.199C46.151 371.615 54.9884 372.818 65.6806 373.42C86.9558 374.623 108.34 375.345 129.615 376.308C172.821 378.233 216.026 380.159 259.231 382.084C263.268 359.34 267.414 336.595 271.45 313.851C227.591 315.776 183.731 317.581 139.871 320.349C119.36 321.673 98.739 322.515 78.3366 325.163C54.9884 328.051 33.8223 336.956 16.8021 355.369C9.383 363.552 4.80064 374.142 3.92781 385.213C3.16409 395.201 5.56437 402.302 12.3288 409.041C27.6033 424.444 48.7695 429.499 68.7355 431.905C92.411 434.673 116.305 434.553 140.089 432.989C184.713 429.86 229.118 422.158 273.96 425.046C277.997 402.302 282.143 379.557 286.179 356.813C241.119 356.211 196.06 355.73 151.109 359.701C129.179 361.626 107.358 364.514 85.7557 369.208C62.2984 374.262 39.7139 381.723 19.7479 396.886C11.1287 403.385 5.01885 412.531 1.96394 423.482C-0.327236 431.905 -1.52738 443.579 4.03692 451.04C9.71031 458.501 15.6019 462.833 24.2211 465.24C30.3309 467.045 36.7681 468.008 42.987 469.091C55.5339 471.377 68.0809 473.182 80.7369 474.386C107.795 477.154 134.962 477.996 162.128 477.154C213.844 475.469 265.231 467.647 316.074 457.779C344.877 452.243 373.462 445.865 402.048 439.607C418.195 436.117 432.488 421.315 434.997 402.903C437.179 387.018 430.96 370.411 414.267 371.374C325.02 376.91 235.555 382.566 147.072 397.247C121.651 401.459 96.4478 406.393 71.354 412.29C55.8612 415.9 44.2962 427.814 39.6048 444.662C35.4588 459.343 38.4046 474.386 52.3699 480.162C73.6451 488.947 96.0114 491.354 118.596 492.678C140.744 494.001 163.001 493.881 185.149 494.122C229.991 494.483 274.942 494.001 319.783 493.4C345.423 493.039 371.171 492.557 396.811 492.076C404.121 491.956 412.412 485.818 417.322 480.523C423.105 474.266 428.56 464.277 429.76 455.252C432.051 438.765 425.723 423.482 409.03 423.722C335.167 425.166 261.413 426.49 187.55 425.768C167.256 425.527 146.963 425.527 126.779 424.204C128.961 424.324 131.252 424.565 133.434 424.685C114.559 423.361 95.7932 420.232 78.0093 412.892C71.6813 435.516 65.3533 458.14 59.1343 480.644C146.854 460.186 236.21 451.04 325.566 444.662C351.096 442.857 376.517 441.292 402.048 439.728C406.084 416.983 410.23 394.239 414.267 371.494C337.458 388.342 260.104 405.31 181.658 408.8C159.51 409.763 137.362 409.642 115.323 408.078C117.505 408.198 119.796 408.439 121.978 408.559C108.995 407.597 96.0114 406.273 83.1372 404.347C71.2449 402.542 58.1524 401.339 46.6965 397.007C48.6604 397.969 50.7333 398.932 52.6972 399.895C50.6242 398.932 48.9877 397.729 47.3511 396.044C48.8786 397.729 50.5151 399.413 52.0426 401.098C51.7153 400.617 51.2789 400.135 50.9516 399.654C45.7146 417.705 40.4776 435.756 35.3497 453.808C37.4227 452.243 39.6048 450.679 41.8959 449.235C42.987 448.513 44.078 447.79 45.1691 447.189C41.0231 449.475 40.3685 449.836 43.3143 448.272C47.8966 446.106 52.479 443.94 57.1705 442.255C59.5708 441.412 61.8619 440.57 64.2622 439.848C65.5715 439.487 68.4082 437.923 69.6083 438.284C65.5715 439.246 65.0259 439.487 67.9717 438.765C69.1719 438.524 70.372 438.163 71.5722 437.923C73.9725 437.441 76.3727 436.839 78.773 436.358C100.048 432.146 121.433 429.378 142.926 427.694C186.458 424.083 230.1 424.565 273.742 425.166C280.833 425.287 289.452 418.788 294.253 413.614C300.036 407.356 305.491 397.368 306.691 388.342C307.782 380.761 308 371.615 303.309 365.237C298.617 358.858 293.271 357.294 285.961 356.813C223.772 352.841 162.128 369.208 99.9392 365.357C102.121 365.477 104.412 365.718 106.594 365.838C90.7744 364.755 74.4089 363.07 59.789 356.331C61.7528 357.294 63.8258 358.257 65.7897 359.219C59.8981 356.211 54.552 352.48 49.7514 347.667C48.224 365.477 46.8056 383.288 45.2782 401.098C46.151 400.135 46.9147 399.293 47.7875 398.451C43.4234 402.181 42.5506 403.024 45.2782 400.857C46.9147 399.774 48.5513 398.571 50.1878 397.488C52.2608 396.285 51.1698 396.886 46.9147 399.413C47.8966 398.932 48.8786 398.451 49.8605 397.969C51.9335 397.127 54.0065 396.405 55.9703 395.683C60.88 393.878 49.7514 396.886 55.3157 395.803C57.4978 395.442 59.5708 394.961 61.7528 394.6C65.4624 393.998 69.281 393.637 72.9905 393.276C93.1747 391.471 113.468 390.147 133.761 388.823C175.439 386.296 217.117 384.491 258.794 382.686C266.213 382.325 274.287 376.669 279.306 371.133C285.088 364.875 290.543 354.887 291.744 345.862C292.835 338.28 293.053 329.134 288.361 322.756C283.67 316.378 278.324 314.693 271.014 314.332C238.283 312.888 205.552 311.324 172.711 309.88C140.526 308.436 108.34 307.714 76.1545 305.547C78.3366 305.668 80.6278 305.908 82.8099 306.029C77.9002 305.668 73.2087 304.705 68.6264 302.78C70.5902 303.742 72.6632 304.705 74.6271 305.668C71.7904 304.224 69.281 302.539 66.9898 300.252C68.5173 301.937 70.1538 303.622 71.6813 305.307C70.0447 303.381 68.8446 301.456 67.7535 299.169C68.7355 301.335 69.7174 303.622 70.6993 305.788C70.2629 304.825 69.9356 303.742 69.6083 302.659C61.0982 319.748 52.5881 336.956 44.078 354.045C47.7875 352.48 51.6062 351.036 55.4248 349.833C56.4067 349.592 57.3887 349.352 58.2615 348.99C61.971 347.787 53.2427 350.074 57.0614 349.352C59.3525 348.87 61.5346 348.389 63.8258 347.907C72.2268 346.343 80.7369 345.501 89.247 344.658C107.467 343.094 125.688 341.89 143.799 340.928C181.003 338.882 218.208 337.919 255.412 337.919C329.275 338.039 403.248 345.862 477.111 342.853C517.479 341.289 561.776 338.762 596.034 312.286C606.617 304.103 614.255 291.227 615.346 276.906C616.218 265.835 612.182 252.718 600.944 250.19C556.975 239.962 511.588 239.239 466.855 236.833C422.559 234.426 378.154 232.139 333.858 229.733C308.655 228.409 283.452 227.085 258.14 225.641C256.394 247.784 254.648 269.926 252.903 292.069C262.94 288.339 273.196 285.089 283.452 282.322C284.761 281.961 286.07 281.599 287.27 281.359C286.507 281.479 281.161 282.803 286.07 281.72C288.689 281.118 291.198 280.516 293.817 279.915C298.944 278.711 304.181 277.749 309.309 276.666C330.039 272.694 350.987 270.047 371.826 267.64C413.613 262.947 455.618 259.697 496.859 250.552C521.953 245.016 546.719 237.916 570.504 227.446C583.051 221.91 594.398 207.469 596.471 192.427C597.234 187.011 597.343 181.355 596.034 176.06C594.507 169.923 588.615 162.221 582.396 161.379C501.768 151.511 420.595 149.465 339.64 149.465C316.947 149.465 294.253 149.585 271.669 149.706C272.214 170.525 272.869 191.464 273.414 212.283C280.833 207.349 288.58 203.137 295.999 198.323C288.58 203.137 295.235 198.805 296.981 197.842C299.054 196.759 301.127 195.676 303.2 194.593C306.8 192.788 310.4 190.983 314.001 189.418C329.494 182.198 345.423 176.301 361.679 171.728C363.534 171.247 365.389 170.765 367.243 170.164C360.152 172.45 365.934 170.525 367.68 170.164C372.044 169.201 376.408 168.238 380.772 167.396C388.955 165.952 397.138 164.748 405.321 163.906C422.886 162.221 440.561 162.342 458.236 163.545C456.054 163.425 453.763 163.184 451.581 163.064C472.42 164.628 493.149 167.516 513.879 170.404C523.698 171.728 534.172 174.135 544.101 172.932C560.03 170.886 573.995 160.296 582.833 145.614C597.562 120.944 596.58 86.647 576.286 66.3094C561.994 51.9888 539.3 52.5905 521.189 51.2668C437.179 45.1294 353.496 54.6363 269.705 60.894C223.445 64.3839 177.076 66.6704 130.816 64.3839C129.07 86.5267 127.324 108.669 125.579 130.812C145.763 124.193 166.274 117.454 186.895 112.761C186.022 113.002 181.112 114.205 186.022 113.002C187.004 112.761 188.095 112.52 189.077 112.28C191.477 111.678 193.878 111.076 196.278 110.475C201.733 109.151 207.297 107.827 212.753 106.624C223.008 104.337 233.373 102.171 243.738 100.005C285.088 91.8217 326.657 85.4436 368.335 79.9079C391.901 76.7791 415.467 73.7705 439.143 70.8823C455.29 68.8365 469.692 51.5074 472.092 34.1783C473.183 26.5968 473.401 17.4509 468.71 11.0728C464.019 4.69477 458.672 3.00999 451.363 2.64897C370.844 -0.84092 290.216 -1.32228 209.589 1.08454C186.786 1.80658 164.092 2.76931 141.29 3.97272C125.251 4.81511 110.631 24.19 108.34 40.6767C106.922 57.4041 113.25 73.6502 129.943 72.8078Z" fill="#121212"/>
</svg>
