<svg width="646" height="466" viewBox="0 0 646 466" fill="none" xmlns="http://www.w3.org/2000/svg">
<path d="M645.39 156.408C644.209 144.054 639.702 136.427 635.516 131.486C621.348 115.158 605.571 115.265 590.223 115.587C565.215 116.232 540.315 116.769 515.307 117.414C511.551 117.521 507.15 116.554 505.218 107.531C503.394 98.722 505.433 86.7981 508.438 81.5344C511.551 76.1632 515.415 75.7335 518.956 75.3038C536.88 73.4776 554.697 71.7589 572.621 69.9327C579.275 69.2882 586.466 68.2139 591.833 57.1494C597.199 46.0848 599.561 21.2702 594.516 8.70171C591.511 1.18212 587.11 0.53758 583.139 0.430157C470.98 -5.37067 81.0542 61.124 81.0542 155.119C81.0542 169.084 81.6982 182.082 82.9862 194.113C26.6384 216.887 -12 243.743 -12 273.391C-12 338.06 2.70407 381.459 22.8819 402.191C27.3897 422.387 32.8635 434.848 39.3033 433.237L41.3425 438.823C64.9549 445.805 93.6117 449.887 123.342 452.143C123.771 455.58 124.63 458.803 126.025 461.166C128.816 465.893 132.465 466.108 135.899 466C230.027 464.604 324.154 463.1 417.96 457.407C422.253 459.555 384.259 462.885 431.054 460.307C477.849 457.729 547.399 472.124 532.802 333.548L550.082 342.572C549.545 333.226 548.472 324.632 546.862 316.79C557.488 300.14 553.302 283.811 552.336 274.573C551.155 262.219 546.647 254.592 542.462 249.651C540.744 247.717 539.134 245.999 537.417 244.495C662.992 223.547 647.322 175.422 645.39 156.408Z" fill="#F0F0E9"/>
</svg>
