<svg width="24" height="16" viewBox="0 0 24 16" fill="none" xmlns="http://www.w3.org/2000/svg">
<path d="M16.8939 9.26879C15.5531 9.26879 13.5419 9.67103 11.933 10.3414C10.4581 9.67103 8.44693 9.26879 7.10615 9.26879C4.69274 9.26879 0 10.4755 0 12.8889V15.8386H24V12.8889C24 10.4755 19.3073 9.26879 16.8939 9.26879ZM12.6034 14.2297H1.60894V12.8889C1.60894 12.3526 4.42458 11.0118 7.10615 11.0118C9.78771 11.0118 12.6034 12.3526 12.6034 12.8889V14.2297ZM22.3911 14.2297H14.2123V12.8889C14.2123 12.3526 13.9441 11.9504 13.676 11.5481C14.6145 11.28 15.8212 11.0118 17.0279 11.0118C19.7095 11.0118 22.5251 12.3526 22.5251 12.8889V14.2297H22.3911ZM7.10615 8.19617C9.2514 8.19617 10.9944 6.45315 10.9944 4.3079C10.9944 2.16265 9.2514 0.553711 7.10615 0.553711C4.96089 0.553711 3.21788 2.29673 3.21788 4.44198C3.21788 6.58723 4.96089 8.19617 7.10615 8.19617ZM7.10615 2.16265C8.31285 2.16265 9.2514 3.1012 9.2514 4.3079C9.2514 5.5146 8.31285 6.58723 7.10615 6.58723C5.89944 6.58723 4.96089 5.5146 4.96089 4.44198C4.96089 3.36935 5.89944 2.16265 7.10615 2.16265ZM16.8939 8.19617C19.0391 8.19617 20.7821 6.45315 20.7821 4.3079C20.7821 2.16265 19.0391 0.553711 16.8939 0.553711C14.7486 0.553711 13.1397 2.29673 13.1397 4.44198C13.1397 6.58723 14.8827 8.19617 16.8939 8.19617ZM16.8939 2.16265C18.1006 2.16265 19.0391 3.1012 19.0391 4.3079C19.0391 5.5146 18.1006 6.45315 16.8939 6.45315C15.6872 6.45315 14.7486 5.5146 14.7486 4.44198C14.7486 3.36935 15.6872 2.16265 16.8939 2.16265Z" fill="white"/>
</svg>
