<svg width="646" height="515" viewBox="0 0 646 515" fill="none" xmlns="http://www.w3.org/2000/svg">
  <path d="M517.841 288.299C513.453 274.022 508.555 265.502 503.351 266.883L501.515 262.969C444.374 251.801 352.132 260.896 308.562 265.962C289.481 268.15 256.522 274.713 238.054 283.348C227.646 288.184 225.707 298.2 227.238 319.961C228.768 341.606 254.788 327.214 275.501 327.675C296.317 328.135 271.624 344.37 267.032 344.715C226.625 348.169 186.321 351.623 145.914 355.077C129.588 356.459 112.854 358.071 98.1601 372.463C92.2419 378.219 86.0176 391.345 88.4666 406.543C89.8951 415.408 93.7725 420.589 97.4459 423.928C109.588 434.981 122.547 434.06 135.098 433.024C155.505 431.297 175.913 429.57 196.422 427.958C199.483 427.727 203.157 428.188 204.993 434.52C206.83 440.738 205.606 449.373 203.259 453.287C200.912 457.202 197.749 457.778 194.79 458.238C180.198 460.426 165.607 462.613 151.016 464.801C145.506 465.607 139.689 466.758 135.71 474.933C131.628 483.108 130.608 501.069 135.2 509.704C137.955 514.885 141.526 515.115 144.893 515.115C237.135 513.503 329.377 511.891 421.415 505.674C425.599 507.977 388.355 511.661 434.17 508.783C480.087 505.904 548.248 521.908 533.963 368.778L550.901 378.795C548.656 332.395 535.085 302.115 517.841 288.299Z" fill="#FFCB99"/>
  <path d="M125.404 313.744C129.792 336.08 135.098 349.781 141.526 348.054L143.465 354.271C211.014 376.953 321.623 371.772 373.866 368.087C396.722 366.475 436.415 359.567 458.965 348.054C471.72 341.491 474.475 376.607 473.965 343.103C473.352 309.599 441.619 329.402 416.824 326.639C392.029 323.991 422.436 301.309 427.844 301.194C476.21 299.812 435.599 281.851 483.76 277.476C665.897 261.242 646.51 196.421 644.367 172.703C643.143 159.002 638.857 150.597 634.674 145.186C620.797 127.109 605.287 127.224 590.288 127.685C565.799 128.376 541.31 129.067 516.923 129.757C513.249 129.873 508.862 128.721 507.025 118.82C505.188 109.033 507.229 95.9076 510.188 90.0357C513.249 84.1638 517.025 83.5882 520.596 83.1276C538.146 81.1703 555.595 79.213 573.145 77.1406C579.676 76.4498 586.716 75.1833 592.022 62.979C597.328 50.7746 599.573 23.2573 594.675 9.44107C591.716 1.15133 587.431 0.460522 583.451 0.230252C473.454 -5.98705 91.2217 67.4692 91.2217 171.436C91.2217 242.935 105.711 290.832 125.404 313.744Z" fill="#FFCB99"/>
  <path d="M34.1826 444.422C38.5702 466.758 43.8762 480.459 50.3045 478.732L52.2433 484.95C119.792 507.631 230.401 502.45 282.644 498.766C305.501 497.154 345.193 490.246 367.743 478.732C380.498 472.17 383.253 507.286 382.743 473.782C382.131 440.277 350.397 460.081 325.602 457.317C300.807 454.669 331.214 431.987 336.622 431.872C384.988 430.491 344.377 412.53 392.539 408.154C574.676 391.92 555.289 327.099 553.146 303.381C551.921 289.68 547.636 281.275 543.452 275.864C529.575 257.788 514.065 257.903 499.066 258.364C474.577 259.054 450.088 259.745 425.701 260.436C422.028 260.551 417.64 259.4 415.803 249.498C413.967 239.712 416.007 226.586 418.966 220.714C422.027 214.842 425.803 214.267 429.374 213.806C446.925 211.849 464.373 209.892 481.924 207.819C488.454 207.128 495.495 205.862 500.801 193.657C506.106 181.453 508.351 153.936 503.453 140.12C500.494 131.83 496.209 131.139 492.229 130.909C382.233 124.691 0 198.148 0 302.115C0 373.614 14.4893 421.51 34.1826 444.422Z" fill="#FFCB99"/>
</svg>
