<svg width="21" height="21" viewBox="0 0 21 21" fill="none" xmlns="http://www.w3.org/2000/svg">
  <path fill-rule="evenodd" clip-rule="evenodd" d="M10.5 18.876C6.08 18.876 2.5 15.296 2.5 10.876C2.5 6.45598 6.08 2.87598 10.5 2.87598C14.92 2.87598 18.5 6.45598 18.5 10.876C18.5 15.296 14.92 18.876 10.5 18.876ZM10.49 0.875977C4.97 0.875977 0.5 5.35598 0.5 10.876C0.5 16.396 4.97 20.876 10.49 20.876C16.02 20.876 20.5 16.396 20.5 10.876C20.5 5.35598 16.02 0.875977 10.49 0.875977ZM9.5 11.876H11.5V5.87598H9.5V11.876ZM9.5 15.876H11.5V13.876H9.5V15.876Z" fill="#C0292C"/>
</svg>
