<svg width="736" height="734" viewBox="0 0 736 734" fill="none" xmlns="http://www.w3.org/2000/svg">
<path d="M661.302 240.391L653.813 227.52C645.974 228.456 639.772 226.701 634.273 217.223C626.902 204.587 633.22 192.418 645.272 185.398C657.323 178.377 670.311 179.898 677.331 191.95C683.65 202.832 680.257 209.969 676.863 214.181L684.352 227.052C693.244 219.212 698.042 204.47 687.511 186.334C675.459 165.624 653.813 162.581 636.964 172.41C620.115 182.239 611.691 201.428 623.977 222.489C634.741 240.859 649.016 243.433 661.302 240.391Z" stroke="white" stroke-width="0.7642" stroke-miterlimit="10"/>
<path d="M678.501 246.592C658.727 251.857 646.675 269.408 652.76 291.99C659.195 315.976 679.32 324.167 698.158 319.136C716.645 314.221 729.633 296.553 723.431 273.62C717.347 251.038 697.222 241.561 678.501 246.592ZM712.082 276.077C716.06 290.82 706.583 300.649 693.946 304.042C681.66 307.318 668.205 304.159 664.343 289.65C660.482 275.258 669.492 265.079 682.83 261.452C695.116 258.058 708.338 262.037 712.082 276.077Z" stroke="white" stroke-width="0.7642" stroke-miterlimit="10"/>
<path d="M734.781 360.673L735.366 339.612L665.397 337.505L665.046 350.844L691.489 351.663C703.423 352.014 717.347 351.78 725.538 351.546V351.663C712.901 355.056 686.341 363.481 664.577 369.682L664.226 382.553C689.149 392.03 711.965 401.04 724.017 404.901V405.018C716.411 404.433 703.892 404.082 691.489 403.731L663.524 402.912L663.056 417.07L733.026 419.059L733.611 397.764C712.784 389.573 691.606 380.915 681.426 377.521V377.404C690.202 375.532 712.55 367.927 734.781 360.673Z" stroke="white" stroke-width="0.7642" stroke-miterlimit="10"/>
<path d="M656.036 443.864L680.958 452.756C692.191 456.735 705.529 460.947 713.369 463.17V463.287C700.264 462.585 672.3 462.468 649.601 461.649L645.271 473.817C666.098 490.666 685.053 506.228 695.35 513.6V513.717C688.33 510.791 676.512 506.579 664.811 502.367L638.485 493.006L633.688 506.345L699.679 529.863L706.934 509.738C689.617 495.581 672.066 480.604 663.524 474.285V474.168C672.3 475.105 695.935 474.754 719.453 474.754L726.591 454.862L660.482 431.344L656.036 443.864Z" stroke="white" stroke-width="0.7642" stroke-miterlimit="10"/>
<path d="M592.736 564.849L601.511 573.039L627.019 536.767L642.229 547.532L619.296 580.176L629.008 587.08L651.941 554.318L664.812 563.328L640.591 597.844L650.303 604.631L682.948 558.179L625.732 517.929L592.736 564.849Z" stroke="white" stroke-width="0.7642" stroke-miterlimit="10"/>
<path d="M574.366 582.4L592.853 603.461L580.918 613.874C572.728 621.012 568.399 620.66 563.133 614.576L561.612 612.821C557.049 607.673 554.007 604.28 551.082 602.642L539.732 612.587C542.54 614.459 546.05 618.671 549.444 622.416L551.55 624.873C559.74 634.233 567.112 631.776 570.505 630.372C566.41 637.041 566.293 644.413 572.143 651.082C580.216 660.209 592.034 659.741 603.734 649.444L631.348 625.341L585.248 572.688L574.366 582.4ZM612.978 626.628L598.703 639.147C592.034 644.998 586.769 645.232 582.556 640.435C578.227 635.52 579.163 630.255 586.067 624.288L600.107 612.002L612.978 626.628Z" stroke="white" stroke-width="0.7642" stroke-miterlimit="10"/>
<path d="M500.184 632.712C481.229 642.423 477.719 656.464 480.176 668.984L493.397 662.197C492.812 654.358 495.035 648.274 504.747 643.242C517.735 636.69 529.552 643.71 535.871 655.996C542.189 668.399 539.966 681.269 527.446 687.588C516.214 693.321 509.31 689.46 505.332 685.833L492.11 692.619C499.365 701.979 513.873 707.596 532.594 698.001C554.007 687.12 558.219 665.707 549.443 648.391C540.551 631.191 521.947 621.596 500.184 632.712Z" stroke="white" stroke-width="0.7642" stroke-miterlimit="10"/>
<path d="M406.462 664.538L407.632 676.472L450.69 666.293L455.02 684.429L416.174 693.672L418.865 705.256L457.711 696.012L461.338 711.223L420.386 720.935L423.077 732.518L478.304 719.414L462.157 651.433L406.462 664.538Z" stroke="white" stroke-width="0.7642" stroke-miterlimit="10"/>
<path d="M308.528 687.471C305.369 698.938 302.209 712.627 300.571 720.584H300.454C300.103 707.479 298.231 679.631 297.295 656.932L284.893 653.539C269.682 675.536 255.524 695.661 248.972 706.426H248.855C251.312 699.171 254.588 687.12 257.864 675.185L265.236 648.157L251.546 644.413L233.059 711.925L253.652 717.541C266.523 699.288 280.095 680.685 285.712 671.558H285.829C285.595 680.333 287.584 703.969 289.456 727.253L309.815 732.869L328.419 665.357L315.548 661.847L308.528 687.471Z" stroke="white" stroke-width="0.7642" stroke-miterlimit="10"/>
<path d="M234.346 634.584L219.135 646.051L191.756 629.436L194.564 610.481L180.874 602.173L170.461 677.642L186.257 687.237L247.217 642.306L234.346 634.584ZM184.033 674.483C185.203 669.101 186.608 660.091 189.416 641.838L209.775 654.124C197.021 663.602 187.778 670.973 184.033 674.483Z" stroke="white" stroke-width="0.7642" stroke-miterlimit="10"/>
<path d="M168.004 588.367L150.453 605.216C141.443 613.757 134.306 620.66 128.339 627.213L128.222 627.096C130.913 618.32 140.156 576.081 143.198 562.391L131.849 550.574L81.1851 599.014L90.5455 608.843L105.171 594.802C113.479 586.846 122.488 578.304 127.753 572.337L127.87 572.454C125.062 580.995 121.669 601.705 114.649 634.116L126.7 646.636L177.364 598.195L168.004 588.367Z" stroke="white" stroke-width="0.7642" stroke-miterlimit="10"/>
<path d="M116.052 524.715L57.3154 562.859L65.3889 575.145L124.009 537.118L116.052 524.715Z" stroke="white" stroke-width="0.7642" stroke-miterlimit="10"/>
<path d="M101.076 497.687L75.3348 509.036L59.656 473.466L48.6574 478.381L64.3362 513.833L47.7214 521.205L30.9895 483.178L20.1079 487.858L42.8071 539.341L106.926 511.142L101.076 497.687Z" stroke="white" stroke-width="0.7642" stroke-miterlimit="10"/>
<path d="M71.3564 394.721L59.4218 395.306L67.7292 438.949L49.3593 442.46L41.8709 403.146L30.1703 405.369L37.6587 444.683L22.3309 447.608L14.3744 406.188L2.67383 408.411L13.3214 464.223L82.121 451.118L71.3564 394.721Z" stroke="white" stroke-width="0.7642" stroke-miterlimit="10"/>
<path d="M19.9908 384.309C29.3513 384.66 37.0737 380.447 42.1049 357.28C45.4981 341.718 48.8913 338.325 54.3906 338.559C59.5389 338.793 63.2831 342.888 62.815 354.589C62.23 366.875 57.4327 371.906 50.6464 373.778L49.9444 388.521C62.698 386.883 72.6435 377.522 73.5796 356.344C74.6326 333.645 65.3892 323.933 53.5715 323.348C43.626 322.88 35.4356 326.625 29.5853 352.6C26.4261 366.524 23.852 369.332 19.1717 369.098C13.7895 368.864 11.3323 363.832 11.6834 355.057C12.2684 342.537 17.5337 340.197 21.3949 339.261L22.0969 324.635C14.3745 325.103 1.73784 330.603 0.684783 354.238C-0.0172535 370.385 6.53509 383.606 19.9908 384.309Z" stroke="white" stroke-width="0.7642" stroke-miterlimit="10"/>
<path d="M24.32 282.98L80.366 298.308L84.2272 284.15L28.0642 268.939L34.7336 244.485L23.384 241.443L6.18408 304.392L17.6507 307.434L24.32 282.98Z" stroke="white" stroke-width="0.7642" stroke-miterlimit="10"/>
<path d="M59.8897 241.56C77.7916 251.389 98.6187 247.177 109.968 226.818C122.02 205.055 113.127 185.281 96.0446 175.803C79.3127 166.56 57.7836 170.304 46.317 191.131C34.9674 211.49 42.9238 232.2 59.8897 241.56ZM56.1455 197.098C63.5169 183.759 77.2066 183.174 88.6732 189.493C99.7887 195.577 107.277 207.278 100.023 220.382C92.8854 233.37 79.1957 234.54 67.144 227.871C55.9115 221.786 49.2421 209.735 56.1455 197.098Z" stroke="white" stroke-width="0.7642" stroke-miterlimit="10"/>
<path d="M413.833 76.1141L421.439 18.3131L446.595 21.5892L448.116 9.88861L383.178 1.34717L381.657 13.0478L406.813 16.441L399.208 74.125L413.833 76.1141Z" stroke="white" stroke-width="0.7642" stroke-miterlimit="10"/>
<path d="M519.373 112.971L535.286 102.557L561.495 120.927L557.4 139.648L570.505 148.892L586.066 74.2418L570.856 63.5942L506.97 104.312L519.373 112.971ZM572.377 76.5819C570.856 81.8472 568.866 90.7397 564.888 108.876L545.465 95.1859C558.57 86.5274 568.281 79.7411 572.377 76.5819Z" stroke="white" stroke-width="0.7642" stroke-miterlimit="10"/>
<path d="M290.977 81.0282L288.286 69.3276L246.865 85.2404L240.196 67.6895L277.521 53.4147L273.309 42.2992L235.984 56.5739L230.368 41.9481L269.799 26.9714L265.469 15.7388L212.349 36.0978L237.388 101.504L290.977 81.0282Z" stroke="white" stroke-width="0.7642" stroke-miterlimit="10"/>
<path d="M202.052 125.14C219.603 113.088 221.124 98.6963 217.146 86.6447L204.977 95.0691C206.616 102.792 205.211 109.11 196.202 115.311C184.15 123.502 171.631 118.236 163.674 106.77C155.835 95.3031 156.303 82.1984 167.769 74.359C178.183 67.2217 185.437 70.1468 189.884 73.189L202.169 64.7645C193.745 56.4571 178.651 52.8299 161.334 64.7645C141.56 78.3372 140.273 100.1 151.272 116.13C162.27 132.043 182.044 138.946 202.052 125.14Z" stroke="white" stroke-width="0.7642" stroke-miterlimit="10"/>
<path d="M345.736 2.75106L347.959 22.8761C349.246 34.2257 350.533 46.6284 352.171 54.4678H351.937C346.789 47.0964 332.397 31.8856 311.102 6.72927L293.902 8.71837L301.742 78.22L315.08 76.6989L312.389 52.5957C310.985 40.31 309.932 30.4815 308.294 21.7061H308.528C313.91 29.1944 341.758 61.9562 350.884 72.6037L367.148 70.7316L359.309 1.22998L345.736 2.75106Z" stroke="white" stroke-width="0.7642" stroke-miterlimit="10"/>
<path d="M459.466 86.6448L469.294 60.4355L484.154 66.0518C494.333 69.913 496.088 73.7742 493.163 81.3796L492.344 83.4857C489.887 90.038 488.366 94.2502 488.366 97.5264L502.524 102.792C502.758 99.5155 504.864 94.3672 506.619 89.57L507.789 86.5278C512.118 74.8272 506.502 69.5619 503.694 67.2218C511.416 67.6898 518.086 64.2967 521.128 55.9892C525.457 44.5226 519.256 34.3431 504.747 28.8438L470.464 15.9731L445.893 81.4966L459.466 86.6448ZM480.059 31.652L497.727 38.3213C506.034 41.4805 508.725 46.0437 506.502 51.894C504.162 58.0953 499.131 59.7334 490.589 56.4573L473.155 49.9049L480.059 31.652Z" stroke="white" stroke-width="0.7642" stroke-miterlimit="10"/>
</svg>
