<svg width="241" height="32" viewBox="0 0 241 32" fill="none" xmlns="http://www.w3.org/2000/svg">
<path d="M96.156 26.392C100.468 26.392 103.52 24.292 103.52 20.54C103.52 16.032 99.964 15.08 96.072 14.296C93.076 13.708 90.836 13.036 90.836 10.768C90.836 8.696 92.628 7.548 95.344 7.548C98.284 7.548 100.132 8.976 100.496 11.832H102.876C102.372 8.136 100.3 5.588 95.288 5.588C91.228 5.588 88.484 7.576 88.484 10.88C88.484 14.66 91.508 15.668 95.036 16.452C98.62 17.236 101.028 17.88 101.028 20.624C101.028 23.116 99.04 24.376 96.268 24.376C92.488 24.376 90.416 22.612 90.08 19.224H87.616C87.84 23.256 90.528 26.392 96.156 26.392ZM117.547 26V11.524H115.279V20.428C115.279 22.724 113.795 24.46 111.499 24.46C109.455 24.46 108.251 23.368 108.251 21.492V11.524H105.983V21.548C105.983 24.544 107.887 26.336 110.855 26.336C112.955 26.336 114.187 25.412 115.223 24.012H115.279V26H117.547ZM120.614 30.648H122.882V24.292H122.938C124.142 25.832 125.542 26.42 127.502 26.42C131.422 26.42 133.802 23.452 133.802 18.804C133.802 13.988 131.254 11.188 127.586 11.188C125.486 11.188 124.03 12.084 122.938 13.568H122.882V11.524H120.614V30.648ZM127.334 24.516C124.002 24.516 122.742 21.968 122.742 18.832C122.742 15.696 124.198 13.12 127.362 13.12C130.106 13.12 131.478 15.584 131.478 18.832C131.478 22.108 130.106 24.516 127.334 24.516ZM136.063 30.648H138.331V24.292H138.387C139.591 25.832 140.991 26.42 142.951 26.42C146.871 26.42 149.251 23.452 149.251 18.804C149.251 13.988 146.703 11.188 143.035 11.188C140.935 11.188 139.479 12.084 138.387 13.568H138.331V11.524H136.063V30.648ZM142.783 24.516C139.451 24.516 138.191 21.968 138.191 18.832C138.191 15.696 139.647 13.12 142.811 13.12C145.555 13.12 146.927 15.584 146.927 18.832C146.927 22.108 145.555 24.516 142.783 24.516ZM157.701 26.392C162.041 26.392 164.673 22.976 164.673 18.776C164.673 14.576 162.041 11.16 157.701 11.16C153.389 11.16 150.701 14.576 150.701 18.776C150.701 22.976 153.389 26.392 157.701 26.392ZM157.701 24.488C154.621 24.488 153.025 21.968 153.025 18.776C153.025 15.584 154.621 13.036 157.701 13.036C160.781 13.036 162.349 15.584 162.349 18.776C162.349 21.968 160.781 24.488 157.701 24.488ZM169.203 11.524H166.935V26H169.203V17.964C169.203 15.248 171.163 13.568 173.403 13.568C173.851 13.568 174.075 13.596 174.411 13.708H174.495V11.524C174.215 11.412 173.991 11.356 173.571 11.356C171.639 11.356 170.127 12.532 169.259 13.932H169.203V11.524ZM175.608 13.372H177.708V23.284C177.708 25.328 179.052 26.084 180.9 26.084C181.572 26.084 182.188 26 182.72 25.888V23.928H182.636C182.384 24.012 181.88 24.124 181.432 24.124C180.508 24.124 179.976 23.788 179.976 22.78V13.372H182.776V11.524H179.976V6.96H177.708V11.524H175.608V13.372Z" fill="#505050"/>
<mask id="mask0" mask-type="alpha" maskUnits="userSpaceOnUse" x="0" y="25" width="6" height="7">
<path fill-rule="evenodd" clip-rule="evenodd" d="M0 25.5737H5.58581V31.159H0V25.5737Z" fill="white"/>
</mask>
<g mask="url(#mask0)">
<path fill-rule="evenodd" clip-rule="evenodd" d="M2.79299 25.5737C4.33462 25.5737 5.58597 26.8234 5.58597 28.3667C5.58597 29.9084 4.33462 31.1597 2.79299 31.1597C1.25135 31.1597 0 29.9084 0 28.3667C0 26.8234 1.25135 25.5737 2.79299 25.5737" fill="white"/>
</g>
<path fill-rule="evenodd" clip-rule="evenodd" d="M12.029 23.5063C13.8822 23.5063 15.3058 22.2714 15.8158 21.0364L18.2316 22.5928C16.9966 24.7692 14.7957 26.2993 11.8682 26.2993C7.97479 26.2993 4.43066 23.2111 4.43066 18.6994C4.43066 14.2155 7.97479 11.1011 11.8682 11.1011C14.822 11.1011 16.9966 12.6575 18.207 14.8338L15.7896 16.3902C15.3058 15.1553 13.9085 13.9203 12.029 13.9203C9.07526 13.9203 7.46474 16.095 7.46474 18.7273C7.46474 21.3579 9.07526 23.5063 12.029 23.5063" fill="white"/>
<path fill-rule="evenodd" clip-rule="evenodd" d="M21.9382 16.7664H29.3758C29.2151 15.1559 27.6571 13.921 25.8038 13.921C23.6291 13.921 22.3942 15.1559 21.9382 16.7664V16.7664ZM21.7759 19.4791C21.7759 21.6538 23.3356 23.507 25.9662 23.507C27.8194 23.507 29.1069 22.5673 29.5628 21.3307L32.1688 22.5673C30.9339 24.7419 28.7575 26.2983 25.8038 26.2983C21.9382 26.2983 18.6631 23.2118 18.6631 18.7C18.6631 14.2162 21.7513 11.1001 25.8038 11.1001C29.5382 11.1001 32.6264 14.0538 32.6264 18.5393L32.3033 19.4791H21.7759Z" fill="white"/>
<path fill-rule="evenodd" clip-rule="evenodd" d="M34.3442 11.4232H37.1356L37.4587 12.6581L37.6194 12.8189L37.7818 12.6581C38.3984 11.7184 39.9565 11.1001 41.1914 11.1001C44.9241 11.1001 47.0726 13.5716 47.0726 16.9813V25.9769H43.9844V17.0092C43.9024 15.0214 42.9364 13.921 40.8962 13.921C39.0708 13.921 37.539 15.397 37.4849 17.1961V26.0031H34.3967V11.4232H34.3442Z" fill="white"/>
<path fill-rule="evenodd" clip-rule="evenodd" d="M47.8233 11.423H50.6442V8.33478L53.0862 5.24658H53.6766V11.4492H56.8189V14.216H53.6766V21.6535C53.6766 22.5933 54.3228 23.2116 55.2609 23.2116L57.1141 22.8885V25.6815L55.3954 26.0029C52.3072 26.0029 50.6163 24.4465 50.6163 21.6535V14.216H47.7954V11.423H47.8233Z" fill="white"/>
<path fill-rule="evenodd" clip-rule="evenodd" d="M58.9946 11.4231H61.786L62.1091 12.9795L62.2698 13.1419L62.4322 12.9795C63.3719 11.7462 64.6068 11.1279 65.8418 11.1279C66.4601 11.1279 66.7815 11.1279 67.3998 11.4494V14.2161H65.5466C63.7212 14.2161 62.1894 15.6922 62.1353 17.4913V25.9768H59.0471V11.4231H58.9946Z" fill="white"/>
<path fill-rule="evenodd" clip-rule="evenodd" d="M74.6485 13.9204C71.6948 13.9204 70.1105 16.0951 70.1105 18.7274C70.1105 21.358 71.6948 23.5327 74.6485 23.5327C77.2791 23.5327 79.1323 21.358 79.1323 18.7274C79.1323 16.0689 77.2791 13.9204 74.6485 13.9204V13.9204ZM81.9253 26.0042H79.1323L78.8109 24.7693L78.6485 24.6069L78.4894 24.7693C77.5497 25.7074 76.0179 26.3257 74.4615 26.3257C70.4336 26.3257 67.0239 23.2375 67.0239 18.7274C67.0239 14.2419 70.4336 11.1274 74.4615 11.1274C76.0179 11.1274 77.5497 11.7457 78.4894 12.6855L78.6485 12.8462L78.8109 12.6855L79.1323 11.4505H81.9253V26.0042Z" fill="white"/>
</svg>
