<svg width="20" height="21" viewBox="0 0 20 21" fill="none" xmlns="http://www.w3.org/2000/svg">
<g clip-path="url(#clip0)">
<path d="M10.0813 2.28862C12.6829 2.28862 13.0081 2.28862 14.1463 2.28862C15.122 2.28862 15.6098 2.45122 15.935 2.61382C16.4228 2.77642 16.748 2.93902 17.0732 3.42683C17.3984 3.75203 17.561 4.07724 17.8862 4.56504C18.0488 4.89024 18.2114 5.37805 18.2114 6.35366C18.2114 7.32927 18.2114 7.65447 18.2114 10.4187C18.2114 13.1829 18.2114 13.3455 18.2114 14.4837C18.2114 15.4594 18.0488 15.9472 17.8862 16.2724C17.7236 16.7602 17.561 17.0854 17.0732 17.4106C16.748 17.7358 16.4228 17.8984 15.935 18.2236C15.6098 18.3862 15.122 18.5488 14.1463 18.5488C13.1707 18.5488 12.8455 18.5488 10.0813 18.5488C7.31707 18.5488 7.15447 18.5488 6.01626 18.5488C5.04065 18.5488 4.55285 18.3862 4.22764 18.2236C3.73984 18.061 3.41463 17.8984 3.08943 17.4106C2.76423 17.0854 2.60163 16.7602 2.27642 16.2724C2.11382 16.1098 1.95122 15.4594 1.78862 14.4837C1.78862 13.5081 1.78862 13.1829 1.78862 10.4187C1.78862 7.65447 1.78862 7.49187 1.78862 6.35366C1.78862 5.37805 1.95122 4.89024 2.11382 4.56504C2.43902 4.07724 2.60163 3.75203 2.92683 3.42683C3.25203 3.10163 3.57724 2.93902 4.06504 2.77642C4.39024 2.61382 4.87805 2.45122 5.85366 2.45122C6.99187 2.28862 7.31707 2.28862 10.0813 2.28862ZM10.0813 0.5C7.31707 0.5 6.99187 0.5 5.85366 0.5C4.87805 0.662602 4.06504 0.825203 3.41463 0.987805C2.76423 1.31301 2.27642 1.63821 1.62602 2.12602C1.13821 2.77642 0.813008 3.26423 0.487805 3.91463C0.325203 4.56504 0.162602 5.37805 0 6.35366C0 7.49187 0 7.81707 0 10.4187C0 13.1829 0 13.5081 0 14.6463C0 15.7846 0.162602 16.435 0.487805 17.0854C0.813008 17.7358 1.13821 18.2236 1.62602 18.874C2.11382 19.3618 2.76423 19.8496 3.41463 20.0122C4.06504 20.3374 4.71545 20.5 5.85366 20.5C6.99187 20.5 7.31707 20.5 9.9187 20.5C12.5203 20.5 13.0081 20.5 13.9837 20.5C15.122 20.5 15.7724 20.3374 16.4228 20.0122C17.0732 19.687 17.561 19.3618 18.2114 18.874C18.6992 18.3862 19.187 17.7358 19.3496 17.0854C19.6748 16.435 19.8374 15.7846 19.8374 14.6463C19.8374 13.5081 19.8374 13.1829 19.8374 10.5813C19.8374 7.97967 19.8374 7.49187 19.8374 6.51626C19.8374 5.37805 19.6748 4.72764 19.3496 4.07724C19.0244 3.42683 18.6992 2.93902 18.2114 2.28862C17.7236 1.80081 17.0732 1.31301 16.4228 1.15041C15.935 0.825203 15.122 0.662602 14.1463 0.5C13.0081 0.5 12.6829 0.5 10.0813 0.5Z" fill="white"/>
<path d="M10.0812 5.37793C7.15435 5.37793 4.87793 7.65435 4.87793 10.5812C4.87793 13.3454 7.15435 15.7844 10.0812 15.7844C13.008 15.7844 15.2844 13.508 15.2844 10.5812C15.1218 7.65435 12.8454 5.37793 10.0812 5.37793ZM10.0812 13.8332C8.12996 13.8332 6.66655 12.3698 6.66655 10.5812C6.66655 8.62996 8.12996 7.16655 10.0812 7.16655C12.0324 7.16655 13.3332 8.62996 13.3332 10.5812C13.3332 12.3698 11.8698 13.8332 10.0812 13.8332Z" fill="white"/>
<path d="M15.2847 6.35357C15.9133 6.35357 16.4229 5.84398 16.4229 5.21536C16.4229 4.58674 15.9133 4.07715 15.2847 4.07715C14.6561 4.07715 14.1465 4.58674 14.1465 5.21536C14.1465 5.84398 14.6561 6.35357 15.2847 6.35357Z" fill="white"/>
</g>
<defs>
<clipPath id="clip0">
<rect width="20" height="20" fill="white" transform="translate(0 0.5)"/>
</clipPath>
</defs>
</svg>
