<svg width="20" height="22" viewBox="0 0 20 22" fill="none" xmlns="http://www.w3.org/2000/svg">
<g clip-path="url(#clip0)">
<path d="M0 2.46369C0 1.64402 0.655738 0.988281 1.47541 0.988281H18.5246C19.3443 0.988281 20 1.64402 20 2.46369V19.6768C20 20.4965 19.3443 21.1522 18.5246 21.1522H1.47541C0.655738 21.1522 0 20.4965 0 19.6768V2.46369Z" fill="white"/>
<path fill-rule="evenodd" clip-rule="evenodd" d="M6.06544 17.8736V8.69332H3.11462V17.8736H6.06544ZM4.59003 7.54578C5.57363 7.54578 6.22937 6.89004 6.22937 5.90643C6.22937 5.08676 5.57363 4.26709 4.59003 4.26709C3.60642 4.26709 2.95068 4.92283 2.95068 5.90643C2.95068 6.89004 3.60642 7.54578 4.59003 7.54578Z" fill="black"/>
<path fill-rule="evenodd" clip-rule="evenodd" d="M7.70508 17.8736H10.6559V12.7916C10.6559 12.4637 10.6559 12.2998 10.8198 11.9719C10.9838 11.4801 11.4756 10.8244 12.2952 10.8244C13.4428 10.8244 13.7707 11.6441 13.7707 12.9555V17.8736H16.7215V12.6277C16.7215 9.84077 15.2461 8.5293 13.2788 8.5293C11.6395 8.5293 10.9838 9.5129 10.492 10.0047V8.69323H7.70508C7.86901 9.67684 7.70508 17.8736 7.70508 17.8736Z" fill="black"/>
</g>
<defs>
<clipPath id="clip0">
<rect width="20" height="20.1639" fill="white" transform="translate(0 0.988281)"/>
</clipPath>
</defs>
</svg>
